<svg width="29" height="40" viewBox="0 0 29 40" fill="none" xmlns="http://www.w3.org/2000/svg">
<path d="M14.5 0.205078L12.8567 1.84841C12.325 2.38008 0 14.8501 0 25.4351C0 33.4101 6.525 39.9351 14.5 39.9351C22.475 39.9351 29 33.4101 29 25.4351C29 14.8984 16.675 2.38008 16.1433 1.84841L14.5 0.205078ZM7.25 23.0184C8.60333 23.0184 9.66667 24.0817 9.66667 25.4351C9.66667 28.0934 11.8417 30.2684 14.5 30.2684C15.8533 30.2684 16.9167 31.3317 16.9167 32.6851C16.9167 34.0384 15.8533 35.1017 14.5 35.1017C9.18333 35.1017 4.83333 30.7517 4.83333 25.4351C4.83333 24.0817 5.89667 23.0184 7.25 23.0184Z" fill="#0763BD"/>
</svg>
