<svg width="26" height="30" viewBox="0 0 26 30" fill="none" xmlns="http://www.w3.org/2000/svg">
<path d="M25.1855 10.2353C23.0554 11.4706 21.7398 13.5882 21.7398 15.9412C21.7398 18.5882 23.4313 21 26 22C25.4988 23.5294 24.747 24.9412 23.8072 26.2353C22.4289 28.0588 20.988 29.9412 18.8578 29.9412C16.7277 29.9412 16.1012 28.7647 13.5952 28.7647C11.1518 28.7647 10.2747 30 8.26988 30C6.26506 30 4.88675 28.2941 3.32048 26.1765C1.25301 23.2353 0.0626506 19.8235 0 16.2353C0 10.4118 4.00964 7.29412 8.01928 7.29412C10.1494 7.29412 11.9036 8.58824 13.2193 8.58824C14.4723 8.58824 16.4771 7.23529 18.8578 7.23529C21.3639 7.17647 23.7446 8.29412 25.1855 10.2353ZM17.7301 4.76471C18.7952 3.58824 19.359 2.11765 19.4217 0.588235C19.4217 0.411765 19.4217 0.176471 19.359 0C17.5422 0.176471 15.8506 1 14.6602 2.29412C13.5952 3.41176 12.9687 4.82353 12.906 6.35294C12.906 6.52941 12.906 6.70588 12.9687 6.88235C13.094 6.88235 13.2819 6.94118 13.4072 6.94118C15.0988 6.82353 16.6651 6 17.7301 4.76471Z" fill="black"/>
</svg>
