<svg width="92" height="95" viewBox="0 0 92 95" fill="none" xmlns="http://www.w3.org/2000/svg">
<g clip-path="url(#clip0_1118_258)">
<path d="M10.8574 76.1674C12.4741 76.0758 14.198 75.8726 14.6879 75.7159C16.0691 75.2742 16.5102 75.3371 18.5331 76.2645C21.8462 77.783 21.8551 78.6906 18.5926 82.2004C16.2953 84.6716 15.4141 86.4091 15.3992 88.496C15.3807 91.0851 13.6022 92.2328 9.57789 92.2511C5.33616 92.271 4.19379 90.5946 7.73958 89.5538C10.4915 88.7459 10.6098 88.5721 9.74856 86.607C9.18413 85.3198 7.91776 78.411 7.91776 76.6204C7.91776 76.4628 9.2408 76.259 10.8574 76.1674Z" fill="#C08A64"/>
<path d="M20.5693 31.4445C14.9265 33.4144 16.6283 30.5638 24.9241 24.1506C29.0637 20.9502 28.5612 20.9936 31.6971 23.5644C35.4902 26.6737 35.3561 26.9618 29.31 28.6898C26.7284 29.4278 22.7949 30.6673 20.5693 31.4445Z" fill="#C08A64"/>
<path fill-rule="evenodd" clip-rule="evenodd" d="M66.2146 31.2185C63.7595 35.0524 62.5834 42.2898 64.2146 43.5233C65.3231 44.3618 64.7989 44.5719 73.9077 39.6405C76.6864 38.1358 78.3424 37.5545 79.8696 37.5474C84.2931 37.5264 78.8888 33.6243 72.6369 32.3249C71.4529 32.0787 69.9449 31.6996 69.2855 31.4821C66.9468 30.7117 66.56 30.6784 66.2146 31.2185Z" fill="#C08A64"/>
<path d="M91.7525 52.2586C92.5952 47.6787 91.4855 45.6101 85.2986 40.2278C80.7005 36.228 79.4677 36.2515 72.1396 40.4813C70.558 41.3943 68.481 42.5075 67.5242 42.9547C65.2133 44.036 65.1949 44.1637 67.0162 46.4813C68.7867 48.7341 70.3364 52.5414 71.1411 56.6166C71.4254 58.0551 71.7427 59.6527 71.8467 60.1668C72.4216 63.0116 73.0382 61.746 73.0382 57.72C73.0382 52.4397 74.2733 51.5303 81.4425 51.5303C87.5712 51.5303 90.2832 52.4822 90.3057 54.6418C90.3252 56.5433 91.2418 55.034 91.7525 52.2586Z" fill="#FFC960"/>
<path d="M59.2097 20.1893C60.5135 8.42424 59.6359 2.34791 56.3817 0.61347C53.155 -1.1063 47.7799 0.943982 45.3023 4.8402C44.9073 5.46152 44.2013 6.28628 43.7338 6.673C41.9235 8.17009 38.48 11.6423 35.9867 14.485C34.5534 16.1192 32.2673 18.3458 30.9064 19.4329C27.9635 21.7844 27.9864 21.6335 30.2673 23.6077C33.4648 26.3759 33.2601 26.4076 38.5713 22.3233C40.7553 20.6438 44.3136 18.5254 44.9512 18.5254C45.5186 18.5254 45.4086 19.0086 44.7379 19.4616C43.9268 20.0093 42.4323 22.4711 41.2333 25.235L40.2352 27.5367L37.2439 27.8C33.6863 28.1128 28.6004 29.3517 21.6734 31.5925C20.6084 31.9368 14.4606 34.2559 13.0366 34.8503C-0.658611 40.5668 -1.5358 41.6256 1.32484 48.9879C1.99212 50.7059 2.69883 53.1114 2.89522 54.3336C3.29063 56.7978 3.60944 58.0383 5.89968 66.0253C6.76673 69.0494 7.58685 72.6234 7.72165 73.9674L7.96724 76.4112L11.1591 76.3827C12.9146 76.3672 14.7805 76.2099 15.3055 76.0327L16.26 75.711L16.1932 68.7299C16.091 58.0862 15.0745 51.7203 13.0445 49.0118C11.3634 46.7684 14.8736 45.4262 23.7387 44.9231C25.804 44.8058 29.0146 44.379 30.8734 43.9743C38.2115 42.377 37.0212 42.3758 40.9212 43.9853C46.668 46.3569 51.4137 46.6007 54.2349 44.6695C56.0231 43.4455 57.9645 42.9626 61.0959 42.9626H64.0023L64.2449 41.0534C64.5637 38.5468 65.8022 34.3228 66.756 32.4912C67.7736 30.5369 67.1979 30.1288 60.6201 28.1415C58.2398 27.4221 58.3434 28.0068 59.2097 20.1893Z" fill="#2B2B2B"/>
<path fill-rule="evenodd" clip-rule="evenodd" d="M77.8407 51.3917C72.662 52.1704 72.3154 52.6179 72.6538 58.0928C72.8888 61.8961 72.7525 62.2263 71.4018 61.1279C69.2862 59.4072 66.0331 60.725 65.7282 63.4259L65.5311 65.1725L62.6907 66.0926C58.4681 67.4602 57.5237 68.3677 56.6214 71.9258C55.0491 78.1237 56.1276 80.7211 61.153 82.8343C62.1797 83.2662 62.7797 84.2254 62.028 84.2327C61.8714 84.2342 59.8515 84.427 57.5384 84.661C52.1475 85.2059 51.6413 85.1128 49.6981 83.2192C47.4499 81.0281 46.4432 80.272 44.6009 79.3929C41.7155 78.0159 40.9115 79.144 43.2675 81.2642C45.302 83.0958 44.1311 83.1129 39.8169 81.314C34.5239 79.107 32.9225 80.4379 37.9266 82.885C39.0561 83.437 38.325 83.6642 36.5123 83.3243C33.93 82.8398 32.7695 82.9073 32.7695 83.5411C32.7695 84.0598 35.1556 85.154 36.2858 85.154C36.9119 85.154 38.4508 86.0325 38.4508 86.3902C38.4508 86.5427 37.2153 86.7082 35.7048 86.7577C32.0802 86.8771 31.5481 87.9402 34.9439 88.2777C38.0017 88.581 39.3618 89.4666 36.7702 89.4666C36.2873 89.4666 35.69 89.6648 35.4427 89.9071C34.6284 90.7052 36.1964 90.9701 42.842 91.1576C51.6365 91.4057 60.2923 92.4009 69.5081 94.2239C75.6346 95.4357 80.8707 95.2014 80.8707 93.7156C80.8707 93.5305 81.7069 91.8969 82.7291 90.0855C86.0452 84.2098 87.8109 76.2066 87.6096 67.9648C87.5014 63.5319 87.8582 60.772 88.673 59.7417C88.9411 59.4029 89.3302 58.5711 89.5378 57.8933C89.7451 57.2158 90.1064 56.1042 90.3403 55.4233C91.5228 51.9828 85.9239 50.1769 77.8407 51.3917ZM74.4318 85.4396C74.4318 86.5478 71.4863 87.861 70.8573 87.0335C70.5922 86.6844 73.1299 84.8461 73.8768 84.8461C74.1821 84.8461 74.4318 85.1131 74.4318 85.4396Z" fill="#C08A64"/>
<path d="M70.4183 83.3314C70.7187 84.7977 69.6672 85.7752 69.104 86.0806C67.6027 86.0806 63.6598 85.7196 63.0966 85.0115C61.4443 82.9343 59.5288 81.9058 58.7775 81.6514C52.0183 79.0855 54.9961 74.6256 55.7734 70.1964C56.3742 66.7752 61.4068 66.5308 64.7447 65.4617C61.1773 60.4215 70.5963 58.4967 71.9105 61.2459C72.962 63.4453 73.7355 64.4432 74.7366 64.8504C73.6852 66.1945 74.2988 69.5851 74.7366 71.1125C69.7799 72.3343 71.9203 74.5746 73.6101 75.5417C73.6728 76.2547 73.5726 77.7106 72.6713 77.8327C71.5448 77.9855 70.0428 81.4986 70.4183 83.3314Z" fill="#020202"/>
</g>
<defs>
<clipPath id="clip0_1118_258">
<rect width="92" height="95" fill="white"/>
</clipPath>
</defs>
</svg>
