<svg width="331" height="327" viewBox="0 0 331 327" fill="none" xmlns="http://www.w3.org/2000/svg">
<ellipse cx="94.3766" cy="94.4036" rx="94.3766" ry="94.4036" transform="matrix(0.707111 0.707103 -0.70711 0.707103 173.176 18.854)" fill="#539C52"/>
<path d="M75.7033 249.794L79.3772 138.881L186.31 245.813L75.7033 249.794Z" fill="#539C52"/>
<path d="M78.7135 246.812C129.709 221.315 231.699 152.384 231.699 80.6399" stroke="#2A3F2E" stroke-width="2"/>
<ellipse cx="62.5801" cy="62.598" rx="62.5801" ry="62.598" transform="matrix(0.688195 0.725526 -0.688195 0.725526 173.615 62.8032)" fill="#E8EDDF"/>
<path d="M110.711 219.927L113.082 144.466L182.092 217.218L110.711 219.927Z" fill="#E8EDDF"/>
<ellipse cx="94.3766" cy="94.4036" rx="94.3766" ry="94.4036" transform="matrix(0.707111 0.707103 -0.70711 0.707103 173.176 18.854)" fill="#539C52"/>
<path d="M75.7035 249.794L79.3774 138.881L186.31 245.813L75.7035 249.794Z" fill="#539C52"/>
<path d="M78.9697 246.754C137.795 196.839 213.761 149.568 231.205 80.2466" stroke="#2A3F2E" stroke-width="2" stroke-linecap="round"/>
<ellipse cx="62.5801" cy="62.598" rx="62.5801" ry="62.598" transform="matrix(0.688195 0.725526 -0.688195 0.725526 173.615 62.8032)" fill="#E8EDDF"/>
<path d="M110.711 219.927L113.082 144.466L182.092 217.218L110.711 219.927Z" fill="#E8EDDF"/>
<path d="M173.549 161.572C173.608 161.913 175.066 169.905 183.271 169.905C191.477 169.905 192.934 161.913 192.993 161.572C193.064 161.159 192.937 160.731 192.685 160.518C192.431 160.307 192.115 160.37 191.905 160.665C191.881 160.701 189.368 164.196 183.271 164.196C177.174 164.196 174.66 160.701 174.637 160.667C174.512 160.486 174.346 160.391 174.179 160.391C174.07 160.391 173.96 160.431 173.86 160.512C173.605 160.726 173.478 161.158 173.549 161.572Z" fill="#EBA352"/>
<ellipse cx="146.798" cy="149.97" rx="7.70236" ry="10.8739" fill="#FA4253"/>
<ellipse cx="217.025" cy="149.97" rx="7.70236" ry="10.8739" fill="#0763BD"/>
<path d="M11.1002 308L10.7028 305.729C12.141 305.351 13.0114 305.048 13.3142 304.821C13.6548 304.594 13.9765 304.083 14.2793 303.288L26.9956 268.148H31.7074L44.7076 304.196C44.8968 304.764 46.0133 305.237 48.057 305.616L47.8299 308H34.6027L34.262 305.729C36.9113 305.199 38.2359 304.575 38.2359 303.856C38.2359 303.553 38.1602 303.156 38.0088 302.664L35.511 295.284H20.8077L17.9125 303.345C17.7611 303.799 17.6854 304.121 17.6854 304.31C17.6854 304.461 17.799 304.556 18.026 304.594L22.0567 305.672L21.8296 308H11.1002ZM21.8863 292.275H34.5459L28.9825 276.323C28.7176 275.528 28.5851 274.979 28.5851 274.676H28.0174L21.8863 292.275ZM50.5504 314.642C51.4587 314.756 52.7076 314.812 54.2971 314.812C55.9245 314.812 57.2113 314.604 58.1574 314.188C59.1036 313.809 60.239 311.747 61.5636 308L52.1399 285.406C51.8371 284.687 51.5533 284.233 51.2884 284.043C51.0613 283.854 50.3422 283.627 49.1311 283.362L49.4718 281.148H61.1662L61.3933 283.362L57.9304 284.214C57.6654 284.252 57.533 284.403 57.533 284.668C57.533 284.706 57.6087 284.952 57.7601 285.406L63.5505 300.563C63.7398 301.093 63.8344 301.68 63.8344 302.323H64.2885L70.3061 286.712C70.5331 286.106 70.6467 285.614 70.6467 285.236C70.6467 284.819 70.3628 284.479 69.7951 284.214C69.2653 283.949 68.3002 283.665 66.8999 283.362L67.2405 281.148H77.3455L77.5725 283.362C75.9073 283.741 75.0179 284.062 74.9044 284.327L65.9348 306.581C65.1779 308.473 64.5724 309.911 64.1182 310.895C63.6641 311.917 63.0396 313.052 62.2448 314.301C61.4501 315.55 60.6175 316.515 59.747 317.197C57.5898 318.824 54.9784 319.903 51.9128 320.432C50.9288 319.448 50.4368 317.897 50.4368 315.777C50.4368 315.55 50.4747 315.172 50.5504 314.642ZM83.0791 300.961V285.974C83.0791 285.179 82.7764 284.611 82.1708 284.27C81.5653 283.892 80.4299 283.532 78.7647 283.192L79.1053 281.375C83.1548 280.845 85.9744 280.58 87.5639 280.58L88.1884 281.148V298.52C88.1884 302.456 89.6833 304.424 92.6731 304.424C94.6033 304.424 96.6091 303.686 98.6907 302.21C99.1827 301.869 99.5044 301.547 99.6558 301.244C99.8071 300.904 99.8828 300.355 99.8828 299.598V285.974C99.8828 285.179 99.5801 284.611 98.9745 284.27C98.369 283.892 97.2336 283.532 95.5684 283.192L95.909 281.375C99.9585 280.845 102.778 280.58 104.368 280.58L104.992 281.148V302.38C104.992 303.364 105.219 304.064 105.673 304.48C106.165 304.859 107.376 305.237 109.307 305.616L108.966 307.432L101.643 308.227C101.378 308.265 101.094 307.773 100.791 306.751C100.526 305.691 100.394 304.783 100.394 304.026V303.686L99.9396 303.515L99.2584 304.31C96.8741 307.111 93.9599 308.511 90.5159 308.511C88.2073 308.511 86.3907 307.905 85.0661 306.694C83.7415 305.445 83.0791 303.534 83.0791 300.961ZM113.459 308L113.118 305.786C115.124 305.445 116.354 305.067 116.808 304.651C117.263 304.234 117.49 303.534 117.49 302.55V286.201C117.49 285.217 117.225 284.516 116.695 284.1C116.203 283.646 114.897 283.268 112.778 282.965L113.118 281.148L120.839 280.41C121.104 280.41 121.388 280.789 121.691 281.546C121.993 282.302 122.145 283.097 122.145 283.93C122.145 284.725 122.069 285.652 121.918 286.712L122.372 286.882L123.11 285.236C123.791 283.722 124.813 282.53 126.175 281.659C127.576 280.751 128.976 280.297 130.376 280.297C131.814 280.297 133.139 280.599 134.35 281.205C134.35 284.308 134.066 287.412 133.499 290.515L130.717 290.799C130.414 287.62 130.111 285.822 129.809 285.406C129.506 284.952 128.995 284.725 128.276 284.725C127.595 284.725 126.781 285.046 125.835 285.69C124.889 286.295 124.113 286.958 123.507 287.677C122.902 288.358 122.599 289.493 122.599 291.083V303.913C122.599 304.405 122.694 304.726 122.883 304.878C123.11 304.991 123.394 305.067 123.734 305.105L128.9 305.786L128.673 308H113.459ZM138.701 308L138.36 305.786C140.404 305.408 141.691 305.01 142.221 304.594C142.788 304.178 143.072 303.402 143.072 302.266V274.393C143.072 273.219 142.845 272.425 142.391 272.008C141.975 271.592 140.764 271.214 138.758 270.873L139.098 268.659H151.02L161.92 298.52C162.109 299.125 162.241 299.598 162.317 299.939H162.885C162.923 299.522 163.017 299.144 163.169 298.803L174.239 268.659H184.514L184.741 270.873L182.357 271.554C181.637 271.781 181.278 272.216 181.278 272.86V303.629C181.278 304.461 181.656 304.953 182.413 305.105L185.933 305.786L185.706 308H171.684L171.343 305.786C173.198 305.445 174.39 305.086 174.92 304.707C175.487 304.291 175.771 303.629 175.771 302.72V276.777C175.771 275.906 175.828 275.187 175.942 274.62H175.487L163.509 306.865H159.422L147.33 274.506H146.876V302.323C146.876 303.231 147.046 303.913 147.387 304.367C147.765 304.821 148.427 305.124 149.374 305.275L152.155 305.786L151.928 308H138.701ZM191.331 308L190.99 305.786C192.845 305.408 193.961 305.029 194.34 304.651C194.756 304.234 194.964 303.534 194.964 302.55V286.257C194.964 285.463 194.661 284.895 194.056 284.554C193.45 284.176 192.315 283.816 190.65 283.476L190.99 281.659C195.04 281.129 197.859 280.864 199.449 280.864L200.073 281.432V303.913C200.073 304.367 200.168 304.67 200.357 304.821C200.584 304.934 200.868 305.029 201.209 305.105L203.991 305.786L203.763 308H191.331ZM200.13 270.759C200.13 271.706 199.827 272.5 199.222 273.144C198.654 273.787 197.878 274.109 196.894 274.109C195.948 274.109 195.153 273.825 194.51 273.257C193.905 272.69 193.602 271.914 193.602 270.93C193.602 269.908 193.886 269.094 194.453 268.489C195.059 267.883 195.873 267.58 196.894 267.58C199.052 267.58 200.13 268.64 200.13 270.759ZM211.63 300.223V284.611H207.94L207.713 282.17L210.495 281.489C211.214 281.3 211.687 280.883 211.914 280.24C212.179 279.559 212.633 277.439 213.276 273.882L216.739 273.541V281.148H224.63L224.176 283.816L216.739 284.668V298.52C216.739 302.456 217.95 304.424 220.372 304.424C221.735 304.424 223.173 303.856 224.687 302.72L225.879 304.367C223.835 307.13 221.338 308.511 218.386 308.511C216.266 308.511 214.601 307.773 213.39 306.297C212.217 304.821 211.63 302.796 211.63 300.223ZM229.49 308L229.149 305.786C231.155 305.445 232.385 305.067 232.839 304.651C233.294 304.234 233.521 303.534 233.521 302.55V286.201C233.521 285.217 233.256 284.516 232.726 284.1C232.234 283.646 230.928 283.268 228.809 282.965L229.149 281.148L236.87 280.41C237.135 280.41 237.419 280.789 237.722 281.546C238.024 282.302 238.176 283.097 238.176 283.93C238.176 284.725 238.1 285.652 237.949 286.712L238.403 286.882L239.141 285.236C239.822 283.722 240.844 282.53 242.206 281.659C243.607 280.751 245.007 280.297 246.407 280.297C247.845 280.297 249.17 280.599 250.381 281.205C250.381 284.308 250.097 287.412 249.53 290.515L246.748 290.799C246.445 287.62 246.142 285.822 245.84 285.406C245.537 284.952 245.026 284.725 244.307 284.725C243.626 284.725 242.812 285.046 241.866 285.69C240.92 286.295 240.144 286.958 239.538 287.677C238.933 288.358 238.63 289.493 238.63 291.083V303.913C238.63 304.405 238.725 304.726 238.914 304.878C239.141 304.991 239.425 305.067 239.765 305.105L244.931 305.786L244.704 308H229.49ZM254.675 301.017C254.675 298.179 255.886 296.06 258.308 294.659C260.731 293.259 264.667 292.54 270.116 292.502V290.685C270.116 285.765 268.338 283.305 264.78 283.305C263.077 283.305 261.998 283.551 261.544 284.043C261.128 284.535 260.674 286.144 260.182 288.869L257.116 288.528C256.814 287.355 256.662 286.144 256.662 284.895C256.662 283.608 256.681 282.776 256.719 282.397C258.952 280.997 261.885 280.297 265.518 280.297C269.151 280.297 271.668 280.997 273.068 282.397C274.507 283.797 275.226 286.106 275.226 289.323V302.38C275.226 303.364 275.453 304.064 275.907 304.48C276.399 304.859 277.61 305.237 279.54 305.616L279.2 307.432L272.387 308.17C272.009 308.17 271.611 307.811 271.195 307.092C270.779 306.373 270.571 305.71 270.571 305.105C270.571 304.461 270.59 303.988 270.627 303.686L270.173 303.515L269.492 304.537C267.713 307.186 265.272 308.511 262.169 308.511C260.049 308.511 258.271 307.849 256.832 306.524C255.394 305.199 254.675 303.364 254.675 301.017ZM260.182 300.506C260.182 301.869 260.541 302.91 261.26 303.629C261.98 304.31 263.001 304.651 264.326 304.651C265.651 304.651 267.146 304.007 268.811 302.72C269.681 302.039 270.116 301.32 270.116 300.563V295C266.71 295.076 264.194 295.53 262.566 296.362C260.977 297.195 260.182 298.576 260.182 300.506ZM284.577 308L284.236 305.786C286.091 305.408 287.207 305.029 287.585 304.651C288.002 304.234 288.21 303.534 288.21 302.55V286.201C288.21 285.217 287.964 284.535 287.472 284.157C287.018 283.741 285.826 283.343 283.895 282.965L284.236 281.148L291.559 280.41C291.824 280.41 292.089 280.94 292.354 282C292.657 283.022 292.808 283.949 292.808 284.781V285.122L293.206 285.292L293.773 284.554C294.719 283.343 295.912 282.34 297.35 281.546C298.826 280.713 300.377 280.297 302.005 280.297C305.638 280.297 307.947 281.924 308.931 285.179L309.328 285.236L309.953 284.441C312.11 281.678 314.816 280.297 318.071 280.297C320.379 280.297 322.177 281.035 323.464 282.511C324.788 283.987 325.451 286.011 325.451 288.585V303.913C325.451 304.367 325.545 304.67 325.734 304.821C325.961 304.934 326.245 305.029 326.586 305.105L329.368 305.786L329.141 308H316.992L316.651 305.786C318.354 305.445 319.395 305.067 319.774 304.651C320.152 304.234 320.341 303.534 320.341 302.55V289.664C320.341 286.144 318.922 284.384 316.084 284.384C314.608 284.384 312.753 285.122 310.52 286.598C310.066 286.863 309.763 287.166 309.612 287.506C309.461 287.809 309.385 288.377 309.385 289.209V303.913C309.385 304.367 309.479 304.67 309.669 304.821C309.896 304.934 310.18 305.029 310.52 305.105L313.018 305.786L312.791 308H300.926L300.586 305.786C302.289 305.445 303.329 305.067 303.708 304.651C304.086 304.234 304.276 303.534 304.276 302.55V289.664C304.276 286.144 302.856 284.384 300.018 284.384C298.542 284.384 296.687 285.122 294.455 286.598C294 286.863 293.698 287.166 293.546 287.506C293.395 287.809 293.319 288.377 293.319 289.209V303.913C293.319 304.367 293.414 304.67 293.603 304.821C293.83 304.934 294.114 305.029 294.455 305.105L296.952 305.786L296.725 308H284.577Z" fill="#539C52"/>
</svg>
