<svg width="30" height="30" viewBox="0 0 30 30" fill="none" xmlns="http://www.w3.org/2000/svg">
<g clip-path="url(#clip0_601_178)">
<path d="M30 15.0001C30 6.71582 23.2843 0.000102997 15 0.000102997C6.71572 0.000102997 0 6.71582 0 15.0001C0 22.487 5.48528 28.6926 12.6562 29.8179V19.336H8.84766V15.0001H12.6562V11.6954C12.6562 7.93604 14.8956 5.85948 18.322 5.85948C19.9631 5.85948 21.6797 6.15244 21.6797 6.15244V9.84385H19.7882C17.9249 9.84385 17.3438 11.0001 17.3438 12.1863V15.0001H21.5039L20.8389 19.336H17.3438V29.8179C24.5147 28.6926 30 22.487 30 15.0001Z" fill="#1877F2"/>
<path d="M20.8389 19.3359L21.5039 15H17.3438V12.1862C17.3438 11 17.9249 9.84375 19.7882 9.84375H21.6797V6.15234C21.6797 6.15234 19.9631 5.85938 18.322 5.85938C14.8956 5.85938 12.6563 7.93594 12.6563 11.6953V15H8.84766V19.3359H12.6563V29.8178C13.4199 29.9376 14.2027 30 15 30C15.7973 30 16.5801 29.9376 17.3438 29.8178V19.3359H20.8389Z" fill="white"/>
</g>
<defs>
<clipPath id="clip0_601_178">
<rect width="30" height="30" fill="white"/>
</clipPath>
</defs>
</svg>
