<svg width="385" height="450" viewBox="0 0 385 450" fill="none" xmlns="http://www.w3.org/2000/svg">
<rect width="385" height="450" fill="#FEF6D2"/>
<path fill-rule="evenodd" clip-rule="evenodd" d="M348.499 245.33C341.135 256.665 331.589 265.766 323.272 276.161C312.445 289.695 303.693 305.491 297.555 322.575C291.204 340.252 287.226 360.042 275.535 373.49C258.716 392.838 230.937 392.436 209.147 381.848C175.133 365.321 151.058 329.207 132.627 291.931C128.925 284.444 125.17 276.57 119.055 271.704C107.937 262.858 93.1325 266.62 79.7423 268.094C70.2248 269.142 60.3125 268.765 51.5727 264.238C38.4836 257.457 29.7145 241.897 26.8771 225.495C24.0397 209.093 26.4948 191.97 31.0845 176.119C43.6707 132.652 72.66 96.4152 108.318 77.2128C143.976 58.0104 185.758 55.6655 223.302 69.0859C239.751 74.9656 255.916 84.1829 267.015 99.5421C276.805 113.09 282.128 130.662 292.876 143.178C303.168 155.161 317.287 161.224 330.098 169.228C342.91 177.232 355.603 188.985 358.52 205.619C360.965 219.561 355.862 233.995 348.499 245.33Z" fill="#EBA352"/>
<path fill-rule="evenodd" clip-rule="evenodd" d="M81.3894 101.936L81.6833 101.955C86.8696 102.303 92.8587 104.877 94.0929 110.775C97.6784 95.7393 105.854 82.2589 116.805 73.3263C113.434 81.6679 112.117 91.1275 113.051 100.288C115.981 91.5817 121.394 84.0457 128.223 79.1654C125.129 84.2872 123.36 90.4867 123.203 96.7536C123.088 101.311 123.889 106.081 126.329 109.637C127.906 111.934 130.063 113.583 132.264 115.014C132.815 115.372 133.371 115.718 133.932 116.051C134.155 116.183 134.378 116.313 134.602 116.441C135.121 116.738 135.645 117.025 136.172 117.3C136.644 117.548 137.119 117.787 137.597 118.017L137.914 118.168C138.229 118.317 138.546 118.463 138.863 118.605L139.387 118.835L139.68 118.96L140.249 119.198L140.464 119.285L140.961 119.483C141.293 119.613 141.627 119.739 141.961 119.861L142.629 120.1L143.066 120.25L143.591 120.424L144.072 120.578L144.761 120.788L145.063 120.877L145.527 121.01L145.796 121.084L146.267 121.21L146.625 121.303L146.856 121.361L147.48 121.512L148.118 121.657L148.731 121.789L149.344 121.912L149.991 122.033L150.585 122.136L151.223 122.238L151.853 122.331L152.422 122.407L152.777 122.451L153.312 122.513L153.692 122.553L154.082 122.591L154.714 122.646L154.919 122.662L155.557 122.707L156.18 122.742L156.786 122.769L157.181 122.782L157.775 122.797L158.053 122.801L158.687 122.805L159.32 122.8L159.592 122.796L160.162 122.782L160.827 122.757L161.214 122.739L161.799 122.705L162.441 122.66L163.065 122.608L163.697 122.548L164.004 122.515L164.619 122.445L165.266 122.362L165.59 122.317L166.172 122.232L166.794 122.132L167.156 122.071L167.457 122.017L167.758 121.962L168.336 121.851L168.719 121.773L168.977 121.719L169.307 121.648L169.934 121.506L170.22 121.438L170.537 121.361L171.094 121.221L171.735 121.051L172.328 120.885L172.663 120.788L173.239 120.615L173.586 120.508L174.176 120.318L174.781 120.115L175.058 120.02L175.419 119.892L175.999 119.681L176.273 119.578L176.568 119.466L176.908 119.333L177.148 119.238L177.498 119.097L178.071 118.859L178.369 118.731L178.962 118.472L179.526 118.216L180.109 117.943L180.635 117.689L181.008 117.504L181.564 117.221L181.84 117.078L182.099 116.941L182.404 116.777L182.697 116.618L182.952 116.477L183.535 116.147L183.803 115.993L184.078 115.831L184.608 115.513L184.928 115.318L185.201 115.148L185.772 114.785L185.997 114.639L186.333 114.417L186.552 114.271L186.837 114.078L187.108 113.892L187.38 113.703L187.913 113.324L188.425 112.951L188.73 112.724L188.966 112.545L189.247 112.33L189.473 112.155L189.771 111.92L189.998 111.74L190.26 111.529L190.548 111.293L190.782 111.099L191.055 110.87C191.164 110.778 191.272 110.685 191.38 110.592C191.419 109.934 191.376 109.358 191.266 108.842C190.818 108.516 190.375 108.158 189.938 107.767C188.411 106.4 186.982 104.101 185.65 100.868L185.299 100.31C183.337 97.1497 181.852 94.1133 181.761 93.6302C181.156 90.4116 180.972 87.1315 181.006 83.835L181.002 83.8151C180.719 81.5618 180.858 79.2582 181.32 76.9514C181.402 75.8032 181.492 74.6566 181.583 73.5137L181.995 74.2761L182.033 74.1506C182.489 72.6691 183.374 75.4991 184.371 78.6703L186.833 83.2254C185.389 71.7353 189.096 59.5291 196.414 51.6738C192.816 68.3601 197.008 87.0518 207.146 99.5296C219.031 114.157 237.499 119.755 248.874 134.926C259.089 148.548 261.868 167.482 268.35 183.946L268.567 184.494C270.883 190.282 274.033 196.149 279.066 198.646C283.97 201.079 289.574 199.797 294.781 198.478L309.396 194.775C304.29 207.97 289.22 214.386 278.05 208.12C281.689 214.247 288.411 217.657 294.726 216.58C303.861 215.021 310.989 205.19 320.206 204.6C322.625 204.445 325.258 205.081 326.864 207.201C329.176 210.252 328.34 215.414 325.75 218.143C323.159 220.872 319.381 221.536 315.916 221.076C320.169 219.196 324.7 209.144 321.667 209.519C314.342 210.426 302.738 217.394 294.454 224.984C296.301 224.395 298.497 224.779 300.373 224.334C304.762 223.292 306.384 222.304 310.194 221.076C308.167 226.158 303.23 227.305 298.164 230.21C306.194 228.859 313.872 226.199 321.902 224.848C324.799 224.361 332.233 227.596 332.055 229.042C331.993 229.548 326.839 229.458 325.957 229.43C322.555 229.324 320.08 228.565 317.122 230.531C308.758 236.091 297.062 236.829 288.07 232.825L289.603 234.187L290.758 235.205C296.164 239.944 301.776 244.452 308.167 246.912C315.539 249.75 324.266 249.411 330.36 243.826L330.569 243.631C335.296 239.16 341.254 236.496 347.327 236.138C340.452 239.997 334.137 245.215 328.732 251.503C333.589 247.967 340.027 247.617 345.144 250.61C341.247 250.704 337.374 251.971 334.002 254.257C332.637 255.182 331.192 257.074 332.055 258.617C332.443 259.312 333.18 259.611 333.875 259.775C339.299 261.058 344.338 257.036 348.91 253.15L350.287 251.978C355.217 247.79 361.997 244.128 367.095 248.032C357.213 254.479 350.353 267.177 339.375 270.388C330.611 272.951 321.495 268.706 313.507 263.773L311.564 262.568L310.756 262.071C306.253 259.321 301.554 256.808 296.562 257.236C290.545 257.753 284.627 264.975 286.998 271.46C288.541 275.685 292.776 277.639 296.689 278.075C300.601 278.51 304.609 277.877 308.436 278.92C316.981 281.25 322.466 290.195 328.976 297.092L330.464 298.647L330.903 299.101C334.398 302.697 339.076 307.124 343.997 308.761C349.529 310.602 355.402 308.694 358.548 308.761C364.967 308.899 371.882 311.239 375.557 317.392L374.606 317.076L373.961 316.867C370.103 315.638 366.479 314.836 362.901 315.725C361.155 316.159 350.615 323.257 339.375 318.136C330.396 314.046 323.232 305.056 319.59 301.88C314.253 297.226 297.122 286.67 299.011 289.035C299.232 289.824 298.388 289.597 296.783 288.624L297.057 289.313C300.219 297.42 300.468 303.79 297.805 308.424C295.033 313.248 290.967 313.968 285.605 310.585L284.383 309.626C281.246 307.158 279.104 305.407 277.957 304.374C276.854 303.38 279.688 324.829 285.605 331.578C288.375 334.737 297.297 336.785 304.84 340.971C306.974 342.156 309.35 344.567 311.968 348.205C308.402 346.107 305.247 344.768 302.503 344.189C290.61 341.679 282.091 344.846 277.03 337.108C271.968 329.371 272.611 326.575 272.075 319.984L271.13 308.424C265.392 318.278 260.02 324.761 255.013 327.873C250.53 330.66 246.008 330.63 241.446 327.782L241.233 327.646L241.328 327.713C245.089 330.304 248.358 332.096 251.135 333.088C254.27 334.208 258.235 334.829 263.029 334.951C249.263 344.696 237.253 343.572 226.999 331.578L226.441 330.922C220.852 324.291 213.134 313.673 208.895 298.116L208.579 296.941C206.746 290.187 205.063 286.031 206.45 273.097L206.61 271.646C206.949 268.454 207.319 263.115 206.541 258.039C206.199 255.803 204.94 252.5 202.766 248.13C193.885 260.497 189.132 272.749 188.506 284.884C187.88 297.019 190.178 310.948 195.401 326.67L195.506 326.997L195.588 327.27C196.751 328.713 197.878 330.413 198.928 332.477C204.32 343.074 211.766 353.255 212.128 365.578C212.354 373.281 209.518 381.034 204.596 386.164C208.762 373.523 205.548 358.055 196.919 349.024L196.655 348.752C187.251 339.174 181.278 325.13 180.422 310.585C180.489 310.875 180.561 311.156 180.639 311.429C179.504 305.167 179.004 298.773 179.141 292.247L179.157 291.57C179.35 284.488 180.311 274.52 182.038 261.665L181.597 263.059C179.914 268.446 178.733 272.926 178.365 275.394C175.721 293.112 176.166 315.998 178.365 327.987L177.124 328.455C157.257 335.92 146.658 338.555 145.325 336.36L140.608 327.987C126.064 298.205 121.901 259.531 128.603 225.193L128.809 224.154L128.677 224.611C126.039 233.832 123.625 247.366 122.871 259.563L122.824 260.361C122.106 273.236 123.348 284.47 122.886 286.874L122.871 286.946C121.505 293.043 128.352 316.482 136.509 332.735C141.724 343.126 149.882 348.901 148.909 350.811C148.157 352.288 136.686 343.49 127.283 333.1L126.754 332.511C118.149 322.855 111.574 311.905 111.408 313.727C110.428 324.475 122.871 345.722 122.871 348.089L122.869 349.189C122.829 359.204 122.198 367.412 119.101 375.952L118.852 376.63C117.13 381.249 114.766 386.17 110.613 387.252C114.612 380.159 117.47 372.19 118.997 363.885C119.666 360.245 120.081 356.48 119.595 352.8C118.954 347.947 116.786 343.542 114.255 339.622C107.801 329.623 98.3966 321.099 96.7068 308.73C95.8334 302.337 97.2227 295.82 97.0303 289.35C96.8454 283.13 95.206 277.1 94.5597 270.923C92.9366 255.41 98.0324 239.138 107.84 228.516C97.2702 229.714 87.0764 235.065 79.2896 243.504C75.6951 247.4 72.5687 251.958 68.4712 255.103C63.2259 259.129 56.8553 260.496 50.6762 261.775C61.8241 253.051 71.4921 241.754 78.9596 228.727C73.1573 237.49 64.335 243.438 54.9401 244.921L55.5963 244.42C61.385 239.966 66.9499 234.742 70.3425 227.699C73.8631 220.389 74.578 210.722 70.478 203.837C66.378 196.953 56.8257 194.78 51.8055 200.774C57.0482 193.019 65.0924 187.941 73.5155 187.069C81.7477 186.216 92.4161 187.639 99.698 183.01C87.1334 180.036 74.4115 177.972 61.6291 176.835C59.2068 176.62 56.2915 176.158 53.6212 175.584C50.9012 175.17 48.5616 174.559 46.7326 173.478C46.5304 173.371 46.3546 173.265 46.2085 173.161C46.1462 173.116 46.0884 173.073 46.0351 173.031L45.9125 172.934L45.8825 172.906C44.6638 171.835 46.5698 171.725 47.434 171.395C47.0573 170.873 46.0356 170.548 45.9761 170.049C45.9716 170.011 45.9832 169.972 46.0071 169.93L45.9774 169.821C45.9349 169.274 47.0953 169.235 47.0529 168.688C46.7152 167.904 46.104 167.858 46.0936 167.471L46.0364 167.397C45.7701 167.031 45.8178 166.758 46.9373 166.773L47.0529 166.776C49.5979 166.85 50.7809 167.079 53.0808 168.304L53.1174 168.315L52.5854 167.641C51.9283 166.793 51.1501 165.63 51.9468 165.206C51.9708 165.187 51.9999 165.174 52.0345 165.166C52.1794 165.106 52.367 165.066 52.6039 165.05C56.481 164.798 56.9723 167.13 60.1739 167.187L60.949 167.198C73.8213 167.349 96.9098 165.856 96.1062 165.532C95.2862 165.202 79.4093 151.696 69.581 152.025C64.713 152.188 59.566 154.144 55.1553 151.731C63.2181 147.834 72.5368 146.626 80.6675 150.325C85.2559 152.412 89.2599 155.937 93.718 158.38C103.34 163.652 115.027 163.461 124.518 157.875C114.047 158.164 103.523 155.347 94.2023 149.76C107.57 151.436 121.244 149.676 133.979 144.642C124.176 138.031 112.86 135.174 101.493 134.667L99.8788 134.667C97.3107 134.66 95.3486 134.622 93.8639 134.667L93.3841 134.686C79.3828 135.346 65.6205 138.914 51.8612 142.014C51.3995 142.118 50.8945 142.177 50.3803 142.186L50.2516 142.187C48.0177 142.187 45.6652 141.23 45.9774 138.877C52.9744 138.727 59.1233 133.816 65.4411 130.298C73.5994 125.755 82.6355 123.384 91.672 123.405L92.1649 123.409L92.6578 123.417C92.5255 123.245 92.3919 123.074 92.2569 122.904L91.9584 122.535L91.694 122.215L91.4264 121.9C91.0852 121.503 90.7363 121.114 90.3801 120.735L90.0725 120.412L89.7668 120.099L89.3455 119.68L89.084 119.427L88.7984 119.157L88.4035 118.794L88.2227 118.631L87.9472 118.388L87.5138 118.016L87.2228 117.773L86.7778 117.413L86.6993 117.35C86.4795 117.177 86.258 117.006 86.0347 116.838L85.7993 116.663L85.5104 116.453L85.1993 116.232L84.8547 115.993L84.4308 115.709L84.069 115.474L83.7628 115.28L83.4637 115.096L83.0127 114.826L82.6731 114.63L82.1862 114.359L81.8331 114.169L81.3906 113.94L80.9241 113.708L80.5552 113.532C80.3268 113.425 80.0974 113.32 79.867 113.219L79.5207 113.07C79.186 112.928 78.8492 112.793 78.5106 112.664C78.3609 112.608 78.211 112.552 78.0607 112.498L77.7316 112.381C77.6173 112.342 77.5028 112.303 77.3881 112.264L77.0501 112.154C71.9242 110.52 67.7023 105.481 66.4113 99.4571C70.8618 102.361 76.2879 101.635 81.3894 101.936ZM102.504 183.689L102.605 183.726C103.955 184.203 105.855 184.736 108.165 185.158C106.282 184.647 104.395 184.157 102.504 183.689ZM53.4596 165.663L53.4658 165.666L53.7696 165.794C54.0358 165.904 54.3349 166.021 54.6695 166.14L54.4092 165.997C54.1029 165.835 53.7869 165.696 53.4596 165.663Z" fill="white"/>
<path fill-rule="evenodd" clip-rule="evenodd" d="M203.914 220.18C202.796 219.915 201.488 219.717 200.646 220.616C191.828 230.032 187.124 243.516 183.373 256.77C180.836 265.732 178.596 274.877 177.821 284.273C177.198 291.832 177.532 299.45 177.866 307.034C178.172 313.977 178.478 320.92 178.784 327.863C178.1 328.402 165.655 306.45 169.953 277.557C174.252 248.664 185.137 223.41 192.513 214.866C202.891 205.99 214.176 222.612 203.914 220.18Z" fill="#E7EAEE"/>
<path d="M80.2555 152.914C84.6297 154.974 88.2638 158.7 92.3936 161.362C96.8918 164.261 101.912 165.855 106.92 167.187C124.134 171.764 73.5362 149.75 80.2555 152.914Z" fill="white"/>
<path fill-rule="evenodd" clip-rule="evenodd" d="M183.734 167.585C195.831 156.565 198.125 162.269 200.873 160.736C197.702 163.765 194.28 167.325 193.943 172.095C193.734 175.042 194.774 177.895 195.831 180.582C197.297 184.31 198.872 188.052 201.229 191.092C206.019 197.273 185.273 183.243 183.531 178.673C182.727 176.564 181.905 174.328 182.124 172.034C182.278 170.417 182.761 168.472 183.734 167.585Z" fill="#E7EAEE"/>
<path d="M187.207 142.22C187.745 139.116 189.902 136.77 192.103 134.925C198.793 129.319 207.036 126.288 215.267 126.406C214.706 126.097 215.931 126.302 217.212 127.552C218.806 129.107 219.636 130.237 220.279 132.953C218.181 132.498 216.238 131.124 214.921 129.162C215.481 132.63 217.967 135.561 220.928 136.247C219.261 136.754 217.734 137.876 216.62 139.412C219.354 138.238 222.719 139.612 224.233 142.52C220.072 141.887 215.696 143.587 212.688 147.005C217.326 144.989 222.936 146.509 226.342 150.706C219.581 150.096 212.801 149.772 206.02 149.734C209.588 150.57 212.85 153.071 214.926 156.564C214.436 156.566 211.422 156.213 206.02 154.487C202.646 153.409 193.092 149.734 193.092 149.734C193.092 149.734 192.099 149.036 191.653 148.696C188.373 146.2 186.891 144.041 187.207 142.22Z" fill="white"/>
<ellipse cx="196.87" cy="133.287" rx="1.6364" ry="2.24889" fill="#FFB61D"/>
<path fill-rule="evenodd" clip-rule="evenodd" d="M192.293 0.404869C192.052 0.483348 191.67 0.429968 191.708 0.140703C191.853 0.0541745 192.014 -0.0348598 192.171 0.0137974C192.327 0.0624547 192.429 0.327546 192.303 0.446766L192.293 0.404869Z" fill="#00160A"/>
<ellipse cx="203.432" cy="145.8" rx="1.79745" ry="2.4" fill="#FFB61D"/>
<path fill-rule="evenodd" clip-rule="evenodd" d="M329.369 297.504L329.227 297.356C327.564 295.615 325.97 293.734 324.38 291.857C319.637 286.259 314.917 280.687 308.436 278.92C306.099 278.283 303.694 278.271 301.285 278.259C299.749 278.252 298.212 278.244 296.689 278.075C292.776 277.639 288.541 275.685 286.998 271.46C284.627 264.975 290.545 257.752 296.562 257.236C302.202 256.752 307.468 260.023 312.498 263.148C312.836 263.357 313.172 263.566 313.507 263.773C321.495 268.706 330.611 272.951 339.375 270.388C345.901 268.479 350.972 263.217 356.088 257.909C359.577 254.289 363.087 250.646 367.095 248.032C361.997 244.128 355.217 247.79 350.287 251.978C350.051 252.178 349.813 252.38 349.575 252.584C344.828 256.631 339.563 261.12 333.875 259.775C333.179 259.611 332.443 259.312 332.055 258.617C331.192 257.073 332.637 255.182 334.002 254.257C337.374 251.971 341.247 250.704 345.144 250.61C340.027 247.617 333.589 247.967 328.732 251.503C334.137 245.215 340.452 239.997 347.326 236.138C341.254 236.496 335.296 239.16 330.569 243.631C324.467 249.403 315.623 249.783 308.167 246.912C300.711 244.042 294.314 238.385 288.07 232.825C297.062 236.829 308.758 236.091 317.122 230.531C319.467 228.973 321.509 229.126 323.949 229.31C324.586 229.358 325.252 229.408 325.957 229.43C326.839 229.458 331.993 229.548 332.055 229.042C332.233 227.596 324.799 224.361 321.902 224.848C317.887 225.523 313.96 226.526 310.033 227.529C306.106 228.532 302.179 229.534 298.164 230.209C299.379 229.513 300.587 228.917 301.748 228.344C305.431 226.529 308.653 224.939 310.194 221.076C308.776 221.533 307.661 221.957 306.593 222.363C304.793 223.047 303.128 223.68 300.373 224.334C299.509 224.539 298.577 224.568 297.643 224.597C296.549 224.632 295.451 224.666 294.454 224.984C302.738 217.394 314.342 210.426 321.667 209.519C324.7 209.144 320.169 219.196 315.916 221.076C319.381 221.536 323.159 220.872 325.75 218.143C328.34 215.414 329.176 210.252 326.863 207.2C325.258 205.081 322.625 204.445 320.206 204.6C315.365 204.91 311.099 207.77 306.817 210.641C302.947 213.236 299.063 215.84 294.726 216.58C288.411 217.657 281.689 214.247 278.05 208.12C289.22 214.386 304.29 207.97 309.396 194.775L294.781 198.477C289.574 199.797 283.97 201.079 279.066 198.646C274.033 196.149 270.883 190.282 268.567 184.494C266.329 178.9 264.536 173.01 262.746 167.131C259.227 155.572 255.721 144.056 248.874 134.926C243.005 127.099 235.248 121.82 227.481 116.534C220.195 111.575 212.899 106.61 207.146 99.5296C197.008 87.0518 192.816 68.3601 196.414 51.6738C189.096 59.5291 185.389 71.7353 186.833 83.2254L181.583 73.5137C181.05 80.2193 180.523 87.053 181.761 93.6302C182.999 100.207 186.308 106.608 191.552 109.397C184.062 101.362 180.472 88.6609 182.392 76.9922C183.345 81.0019 185.498 84.6072 188.39 87.0345C186.713 75.321 189.222 62.8667 195.192 53.2573C191.615 71.2656 197.056 91.329 208.858 103.638C213.935 108.934 219.946 112.765 225.955 116.593C232.207 120.577 238.457 124.559 243.647 130.187C253.958 141.368 258.849 157.618 263.29 173.216C265.901 182.384 268.946 192.281 275.923 197.462C285.343 204.458 297.655 200.019 308.094 195.404C302.538 208.4 286.64 213.46 276.213 205.552C278.49 213.157 285.332 218.538 292.218 218.137C297.241 217.845 301.868 214.879 306.438 211.95C311.983 208.395 317.445 204.894 323.43 206.289C324.398 206.514 325.37 206.885 326.128 207.625C328.289 209.735 327.754 214.049 325.786 216.403C323.817 218.757 320.939 219.659 318.209 220.465C320.613 218.776 323.211 216.804 323.989 213.654C324.767 210.505 324.27 208.614 321.902 208.614C312.708 208.614 302.67 216.578 294.43 223.116C293.689 223.704 292.964 224.28 292.254 224.837C297.839 226.173 303.809 225.193 308.863 222.111C304.196 226.319 298.392 228.778 292.502 229.042C298 233.409 304.844 231.197 311.703 228.981C318.495 226.786 325.301 224.586 330.827 228.767C325.163 226.12 319.243 228.525 313.249 230.96C307.981 233.1 302.656 235.263 297.397 234.039C296.23 233.768 295.049 233.333 293.87 232.899C290.915 231.812 287.97 230.728 285.275 232.215C292.329 239.086 300.447 244.461 309.115 248.001C313.715 249.88 318.745 251.244 323.422 249.647C326.458 248.61 329.069 246.42 331.674 244.236C334.492 241.872 337.304 239.515 340.64 238.627C334.444 243.049 328.98 248.868 324.638 255.669C330 250.688 337.294 248.673 343.997 250.321C342.672 250.808 341.278 250.959 339.886 251.11C338.262 251.286 336.641 251.462 335.138 252.17C332.347 253.484 330.395 258.233 332.744 260.431C333.483 261.122 334.462 261.354 335.406 261.426C340.638 261.824 345.173 258.143 349.688 254.478C354.368 250.68 359.027 246.899 364.418 247.695C359.266 253.773 354 259.871 347.694 264.218C341.388 268.564 333.839 271.045 326.676 269.28C322.134 268.161 318.061 265.451 314.003 262.75C312.927 262.035 311.853 261.32 310.772 260.636C305.609 257.369 299.71 254.685 293.973 256.143C288.236 257.602 283.306 264.795 285.332 271.235C286.794 275.884 291.147 278.418 295.316 279.307C297.125 279.692 298.964 279.856 300.802 280.02C303.2 280.234 305.595 280.447 307.916 281.153C314.687 283.209 319.748 288.971 324.858 294.789C328.686 299.146 332.541 303.536 337.164 306.422C341.667 309.234 342.478 310.469 343.591 310.875C344.621 311.251 345.909 310.919 350.615 310.471C358.309 309.739 367.147 309.247 372.521 315.725C366.527 311.92 362.656 313.648 358.26 315.611C354.866 317.126 351.16 318.78 345.923 318.136C338.48 317.221 332.549 311.368 326.653 305.549C324.459 303.383 322.269 301.223 320.008 299.323C318.56 298.106 317.222 296.902 315.945 295.753C309.87 290.287 305.199 286.085 296.845 287.825C299.018 293.1 299.629 299.234 298.55 304.951C297.993 307.906 296.793 311.007 294.436 312.259C291.384 313.879 287.89 311.753 285.128 309.534C279.717 305.187 274.675 300.214 270.099 294.71C269.689 294.217 269.281 293.718 268.872 293.218C266.223 289.977 263.542 286.699 260.117 284.742C249.769 278.829 237.072 287.7 231.454 299.451C233.321 291.28 238.764 284.344 245.568 281.467C252.372 278.59 260.352 279.849 266.26 284.733C267.575 285.82 268.883 287.099 270.199 288.386C274.454 292.547 278.798 296.794 283.755 294.929C278.533 295.273 274.447 291.278 270.275 287.198C267.722 284.702 265.137 282.174 262.239 280.589C254.108 276.139 244.181 279.785 237.15 286.313C232.791 290.362 228.925 297.248 231.493 303.023C235.469 290.585 247.667 280.867 258.263 285.655C262.66 287.642 266.054 291.668 269.39 295.623C269.88 296.205 270.369 296.784 270.859 297.356C274.737 301.873 278.917 306.036 283.349 309.792C285.937 311.986 288.877 314.129 292.065 313.863C296.495 313.493 299.762 308.384 300.373 303.242C300.984 298.101 300.39 293.97 299.011 289.035C297.122 286.67 314.253 297.226 319.59 301.88C320.489 302.664 321.603 303.802 322.905 305.133C326.879 309.196 332.613 315.056 339.375 318.136C348.775 322.419 357.686 318.154 361.372 316.39C362.094 316.045 362.615 315.796 362.901 315.725C366.968 314.715 371.095 315.889 375.557 317.392C371.882 311.239 364.967 308.899 358.548 308.761C357.594 308.741 356.39 308.902 355.021 309.085C351.873 309.506 347.852 310.044 343.997 308.761C338.314 306.871 332.954 301.258 329.369 297.504ZM296.318 229.753C296.801 229.592 297.32 229.585 297.805 229.732L297.776 229.843C297.29 229.897 296.797 229.867 296.318 229.753ZM80.2555 152.914C82.9114 154.165 85.2945 156.03 87.6814 157.898C89.2256 159.107 90.7713 160.316 92.3936 161.362C96.8918 164.261 101.912 165.855 106.92 167.187C124.134 171.764 141.892 173.534 159.52 172.43C165.631 172.047 171.898 171.265 177.335 167.982C184.107 163.894 189.053 155.911 190.264 147.116C187.56 147.302 185.642 143.523 186.18 140.42C186.718 137.316 188.875 134.97 191.077 133.125C197.767 127.519 206.009 124.487 214.24 124.606C213.7 124.308 213.308 123.95 212.909 123.586C212.377 123.1 211.832 122.602 210.908 122.221C213.035 121.067 215.269 121.774 217.074 123.523C216.2 121.586 216.347 119.077 217.44 117.298C219.483 122.108 222.976 126.055 227.158 128.281C222.757 127.27 218.918 123.411 217.404 118.476C217.036 121.504 217.819 124.693 219.486 127.047C217.475 124.463 214.683 122.721 211.725 122.221C215.823 123.918 219.12 128.054 220.278 132.953C218.181 132.498 216.238 131.124 214.921 129.162C215.481 132.63 217.966 135.561 220.928 136.247C219.26 136.754 217.734 137.875 216.62 139.412C219.354 138.238 222.719 139.612 224.233 142.52C220.072 141.887 215.696 143.587 212.688 147.005C217.326 144.988 222.936 146.509 226.341 150.706C219.581 150.096 212.801 149.772 206.02 149.734C209.588 150.57 212.85 153.071 214.926 156.564C212.744 156.572 210.565 155.761 208.788 154.281C210.407 154.014 212.103 154.416 213.504 155.403C210.595 152.428 207.018 150.353 203.232 149.444C210.364 148.521 217.595 148.651 224.699 149.828C220.922 146.756 215.808 146.074 211.536 148.073C213.862 143.744 218.402 141.191 222.748 141.767C220.843 139.606 217.655 139.198 215.394 140.825C215.788 138.597 217.337 136.705 219.225 136.148C217.77 135.26 216.259 134.316 215.308 132.752C214.357 131.187 214.173 128.806 215.349 127.467C216.05 129.167 217.193 130.613 218.581 131.575C218.748 131.743 218.947 131.874 219.188 131.955C218.981 131.838 218.779 131.711 218.581 131.575C218.033 131.019 217.832 130.045 217.624 129.037C217.423 128.059 217.215 127.049 216.676 126.357C215.878 125.332 214.541 125.249 213.356 125.302C204.698 125.692 196.185 129.626 189.639 136.261C188.022 137.9 186.392 140.349 187.202 142.664C187.6 143.802 188.504 144.57 189.365 145.276L195.305 150.151C193.94 150.007 192.603 149.514 191.415 148.716C189.771 157.467 184.577 165.211 177.7 169.166C172.665 172.06 166.974 172.944 161.382 173.475C145.049 175.024 128.531 173.896 112.464 170.134C111.286 169.858 110.109 169.568 108.932 169.277L108.931 169.277L108.93 169.277C104.585 168.206 100.236 167.133 95.8104 166.776C90.5244 166.348 84.2552 166.87 78.114 167.382C68.7596 168.161 59.7024 168.916 54.8695 166.251C54.818 166.223 54.7663 166.194 54.7144 166.165C54.1762 165.864 53.609 165.546 53.0029 165.692C51.4995 165.692 52.9874 166.959 54.383 168.148C55.001 168.675 55.6008 169.186 55.9149 169.564C54.3785 169.187 53.0581 168.852 51.7377 168.516L51.7366 168.516L51.7353 168.516C50.4149 168.18 49.0944 167.845 47.5578 167.468C44.484 166.712 50.4812 169.788 52.6039 170.258C52.1268 170.217 51.4247 170.128 50.6672 170.033L50.6668 170.033C48.3372 169.74 45.4853 169.381 47.0529 170.134C48.0915 170.633 49.0597 171.037 50.0279 171.442C50.9961 171.847 51.9642 172.252 53.0029 172.75C52.478 172.735 51.6967 172.669 50.8638 172.599L50.8635 172.599C48.4492 172.394 45.6008 172.153 47.3004 173.014C49.5865 174.172 58.0584 175.491 63.7974 175.959C78.4085 177.15 93.0134 179.18 107.23 183.298C108.969 183.802 110.708 184.337 112.449 184.874L112.449 184.874C120.147 187.244 127.882 189.627 135.797 189.305C135.8 190.478 134.463 190.874 133.46 190.858C127.358 190.761 121.393 188.994 115.464 187.239C114.742 187.025 114.021 186.812 113.3 186.601C96.3522 181.655 79.0468 178.384 61.6291 176.835C56.1886 176.351 48.2606 174.628 46.2085 173.161C44.7455 172.115 45.8068 171.84 46.7669 171.591L46.767 171.591C47.1536 171.49 47.5238 171.394 47.7063 171.254L47.6873 171.246C47.0361 170.986 46.18 170.644 45.9773 169.821C45.9561 169.548 46.2356 169.401 46.5151 169.255C46.7946 169.108 47.0741 168.961 47.0529 168.688C47.0348 168.455 46.7431 168.157 46.4579 167.864C45.8891 167.282 45.3462 166.726 47.0529 166.776C49.6151 166.851 50.7969 167.083 53.1277 168.329C53.0597 168.238 52.9724 168.129 52.8741 168.006L52.874 168.006C52.0922 167.028 50.6155 165.18 52.6039 165.05C54.7034 164.914 55.8101 165.535 56.8919 166.142C57.8079 166.657 58.706 167.161 60.1739 167.187C72.869 167.41 96.9262 165.862 96.1061 165.532C95.9733 165.479 95.4454 165.08 94.6121 164.449C90.3012 161.19 77.8172 151.749 69.5809 152.025C68.1627 152.072 66.7208 152.272 65.2803 152.472C61.7764 152.957 58.281 153.441 55.1553 151.731C63.2181 147.834 72.5367 146.626 80.6674 150.324C83.2774 151.512 85.6983 153.164 88.1213 154.818C89.9579 156.072 91.7957 157.327 93.718 158.38C103.34 163.652 115.027 163.461 124.518 157.875C114.047 158.164 103.523 155.347 94.2022 149.76C107.569 151.436 121.244 149.676 133.979 144.642C121.841 136.457 107.385 134.026 93.3841 134.686C81.2853 135.256 69.3649 137.998 57.4707 140.733L57.468 140.734C55.5986 141.163 53.7299 141.593 51.8612 142.014C49.3605 142.578 45.5871 141.819 45.9773 138.877C51.4293 138.76 56.3664 135.753 61.2697 132.766L61.2699 132.766C62.6594 131.92 64.0461 131.075 65.4411 130.298C73.8961 125.59 83.2938 123.214 92.6577 123.417C88.5198 118.022 83.0304 114.061 77.0501 112.154C71.9242 110.52 67.7023 105.481 66.4112 99.4571C69.8799 101.72 73.9412 101.779 77.9796 101.837H77.9798C79.2224 101.855 80.4629 101.872 81.6833 101.954C86.8696 102.303 92.8586 104.877 94.0929 110.775C97.6784 95.7393 105.854 82.2589 116.805 73.3263C113.434 81.6679 112.116 91.1274 113.051 100.288C115.981 91.5817 121.394 84.0457 128.223 79.1654C125.129 84.2872 123.36 90.4867 123.203 96.7536C123.088 101.311 123.888 106.081 126.329 109.637C127.906 111.934 130.063 113.583 132.264 115.014C150.617 126.942 174.901 125.019 191.709 110.306C185.941 118.046 177.395 122.484 168.698 123.903C160 125.323 151.123 123.94 142.59 121.516C135.224 119.423 127.313 115.881 123.843 108.004C120.204 99.7444 122.747 89.6395 126.319 81.34C120.484 87.0529 115.8 94.3628 112.753 102.515C111.364 94.2818 111.886 85.6195 114.247 77.6945C104.399 86.7872 97.397 100.002 94.8207 114.359C92.7131 108.021 87.3138 103.365 81.5113 102.881C79.9481 102.751 78.346 102.892 76.7511 103.031C73.7818 103.292 70.8374 103.55 68.2152 102.054C69.6078 106.937 74.0672 108.877 78.3961 110.761C79.5375 111.257 80.6699 111.75 81.7346 112.292C87.2859 115.116 91.7397 120.18 96.0605 125.137C87.6742 123.141 78.9389 125.407 70.9511 128.998C66.9663 130.79 63.0979 132.908 59.2294 135.026L59.2293 135.026C55.3433 137.153 51.4574 139.28 47.4536 141.077C52.5258 141.273 57.5143 139.802 62.4437 138.348C62.7514 138.257 63.0589 138.166 63.3662 138.076C82.8733 132.349 103.916 128.475 122.743 136.746C124.457 137.499 126.14 138.349 127.822 139.198L127.823 139.198C130.194 140.395 132.564 141.591 135.021 142.517C149.322 147.908 164.857 143.654 179.294 138.784C167.378 146.403 153.214 149.107 139.842 146.315C135.918 145.496 131.967 146.78 128.091 148.041L128.091 148.041L128.091 148.041C127.506 148.231 126.922 148.421 126.341 148.602C118.25 151.133 109.822 152.19 101.455 151.725C113.36 157.967 126.697 156.679 140.03 155.392C153.415 154.099 166.798 152.807 178.726 159.134C162.395 154.666 145.204 154.551 128.831 158.801C127.154 159.237 125.465 159.717 123.77 160.2L123.769 160.2C115.291 162.613 106.646 165.073 98.4208 162.166C94.7875 160.882 91.5058 158.621 88.2203 156.358C85.3076 154.351 82.3919 152.343 79.2257 151.011C72.6469 148.244 65.1398 148.636 58.7986 152.079C65.971 150.889 73.5362 149.75 80.2555 152.914ZM219.807 127.477C219.702 127.331 219.595 127.187 219.486 127.047C219.589 127.193 219.697 127.337 219.807 127.477ZM208 130.499L207.569 129.998C208.115 129.126 208.073 127.816 207.473 126.995C207.608 126.696 208.01 126.711 208.22 126.943C208.431 127.174 208.497 127.529 208.543 127.862C208.672 128.804 208.659 129.937 208 130.499ZM207.624 141.678C208.287 140.156 208.436 138.338 208.031 136.697C207.731 136.694 207.434 136.545 207.227 136.292C207.539 138.056 207.476 139.91 207.045 141.64C207.224 141.527 207.457 141.542 207.624 141.678ZM194.097 136.701C193.854 136.739 193.709 136.991 193.803 137.218C194.445 138.757 196.696 143.854 198.979 145.421C199.152 145.425 199.323 145.306 199.402 145.126C197.181 143.472 195.026 138.238 194.518 136.945C194.452 136.776 194.277 136.674 194.097 136.701ZM207.576 152.746L206.665 151.732C207.183 151.511 207.816 151.74 208.137 152.264C208.457 152.788 208.438 153.562 208.091 154.063C207.949 154.269 207.752 154.432 207.529 154.475C207.357 154.507 207.183 154.468 207.012 154.429C206.33 154.272 205.635 154.109 205.026 153.717C204.417 153.325 203.896 152.658 203.8 151.853C204.791 152.803 206.038 153.382 207.317 153.484L207.576 152.746ZM203.939 154.123C201.404 154.677 198.902 155.439 196.458 156.402C198.559 156.471 200.639 157.25 202.383 158.621C204.621 160.382 207.269 161.423 209.963 161.601C207.089 162.442 203.881 161.516 201.674 159.207C200.609 158.094 199.172 157.563 197.748 157.427C196.324 157.291 194.895 157.519 193.481 157.758C195.515 155.49 198.346 154.549 201.057 153.685C202.054 153.368 203.326 153.151 203.939 154.123ZM200.873 160.736C198.125 162.269 195.73 164.656 194.001 167.585C193.21 168.924 192.545 170.417 192.391 172.034C192.171 174.328 192.994 176.564 193.798 178.673C195.54 183.243 197.326 187.893 200.178 191.625C204.596 197.406 210.932 200.256 217.21 203.08C218.852 203.818 220.489 204.554 222.087 205.34C243.84 216.047 260.283 237.835 272.723 261.281L272.829 261.482C274.445 264.529 276.128 267.703 278.759 269.53C265.306 240.999 245.73 215.05 219.892 202.834C218.779 202.307 217.647 201.8 216.512 201.292C210.904 198.781 205.212 196.232 201.229 191.092C198.872 188.052 197.297 184.31 195.831 180.582C194.774 177.895 193.734 175.042 193.943 172.095C194.28 167.325 197.702 163.764 200.873 160.736ZM129.348 292.504C130.273 298.3 131.441 304.065 133.256 309.566C134.923 314.62 137.133 319.429 139.817 323.845C130.042 311.54 127.175 293.869 126.093 277.126C125.228 263.752 125.232 250.301 126.104 236.927C122.783 257.164 122.109 278.198 125.915 298.318C129.721 318.439 138.201 337.626 151.28 351.444C151.833 352.028 151.311 353.216 150.582 353.397C149.853 353.579 149.129 353.127 148.484 352.69C134.809 343.414 121.029 332.563 113.533 316.29C113.218 315.607 113.041 314.509 113.673 314.27C122.375 328.849 133.928 341.089 147.193 349.784C130.208 330.546 122.073 302.363 121.42 274.729C120.768 247.094 126.974 219.811 135.255 193.915C136.321 190.58 137.5 187.127 139.775 184.758C127.273 218.403 123.592 256.444 129.348 292.504ZM289.641 280.132C287.928 280.623 286.074 280.408 284.477 279.534C287.966 282.414 291.14 285.817 293.896 289.632C291.931 289.11 290.109 287.878 288.741 286.149L291.584 292.324L286.773 287.364L288.345 292.642C280.157 284.882 273.572 275.079 267.006 265.302L267.006 265.302L267.006 265.302L267.006 265.302L267.006 265.302L267.006 265.302L267.006 265.302L267.006 265.302L267.005 265.302L267.005 265.302L267.005 265.301L267.005 265.301L267.005 265.301C258.985 253.36 250.992 241.458 240.135 233.369C228.6 224.776 214.889 221.322 201.505 218.021C202.383 217.352 202.895 216.083 202.779 214.866C195.404 223.41 189.493 233.673 185.496 244.875C183.829 249.545 182.495 254.366 181.163 259.181C179.429 265.448 177.688 271.745 176.797 278.248C175.548 287.366 175.996 296.672 176.448 305.891L177.438 326.104C177.485 327.066 178.1 328.402 178.784 327.863L177.866 307.034C177.532 299.45 177.198 291.832 177.821 284.273C178.596 274.877 180.836 265.732 183.373 256.77C187.124 243.516 191.828 230.032 200.646 220.616C201.488 219.717 202.796 219.915 203.914 220.18C214.176 222.611 224.354 225.93 233.751 231.328C243.148 236.726 251.773 244.296 257.936 254.19C266.857 268.513 276.889 281.891 287.868 294.106C288.764 293.734 289.37 292.579 289.248 291.477C289.875 292.647 291.063 293.375 292.244 293.311L292.347 290.49C293.144 291.247 294.39 291.267 295.204 290.534C293.606 287.11 291.256 284.17 288.442 282.073L290.439 281.925C291.215 280.89 290.11 279.404 289.121 278.658L277.494 269.889C281.002 274.081 285.131 277.563 289.641 280.132ZM50.6762 261.775C56.8552 260.496 63.2259 259.129 68.4712 255.103C71.2497 252.97 73.5817 250.188 75.9159 247.403C77.024 246.081 78.1325 244.758 79.2896 243.504C87.0764 235.065 97.2701 229.714 107.84 228.516C98.0323 239.138 92.9366 255.41 94.5597 270.922C94.8224 273.433 95.2491 275.92 95.6756 278.405C96.2984 282.033 96.9206 285.658 97.0303 289.35C97.1095 292.014 96.9205 294.687 96.7317 297.356C96.4621 301.167 96.1931 304.97 96.7067 308.73C97.9289 317.676 103.186 324.61 108.445 331.546C110.457 334.2 112.469 336.855 114.255 339.622C116.786 343.542 118.954 347.947 119.595 352.8C120.081 356.48 119.666 360.245 118.997 363.885C117.47 372.19 114.612 380.159 110.613 387.252C114.971 386.117 117.358 380.756 119.101 375.952C122.311 367.101 125.349 357.255 122.871 348.089C121.87 344.387 120.043 341.125 118.213 337.859C117.368 336.35 116.522 334.839 115.757 333.285C110.431 322.461 109.105 309.05 112.179 297.092C110.594 309.909 112.966 323.346 118.763 334.382C119.315 335.433 119.899 336.468 120.483 337.503C122.151 340.458 123.82 343.416 124.753 346.765C125.617 349.868 125.808 353.178 125.705 356.438C125.338 368.103 121.159 379.549 114.207 387.928C113.117 389.242 111.43 390.557 110.124 389.548C108.796 388.523 109.208 386.15 109.847 384.447C110.771 381.983 111.861 379.559 112.951 377.135C115.799 370.802 118.646 364.47 118.533 357.444C118.378 347.84 112.704 339.705 107.145 332.631L106.869 332.28C101.387 325.307 95.5355 317.865 94.3956 308.512C93.9351 304.733 94.2928 300.93 94.6513 297.118C94.8977 294.499 95.1444 291.875 95.1263 289.252C95.0991 285.308 94.4747 281.426 93.8496 277.541C93.4238 274.894 92.9976 272.245 92.7596 269.573C91.5209 255.664 95.6871 241.219 103.878 231.026C95.2853 233.028 87.1712 237.766 80.6415 244.595C79.3101 245.987 78.0405 247.467 76.7717 248.945L76.7715 248.945C74.3379 251.781 71.9069 254.614 69.0484 256.822C62.8051 261.644 55.1355 263.039 47.7327 264.318C47.2324 263.564 47.9028 262.532 48.5236 261.912L68.1444 242.339C62.4698 245.422 56.1785 246.942 49.9231 246.74C50.7836 246.046 51.6513 245.359 52.5198 244.672L52.5199 244.671C57.1689 240.991 61.8401 237.293 65.5561 232.402C69.9664 226.597 72.9061 218.638 71.4471 211.064C69.9881 203.49 62.9942 197.311 56.659 199.644C55.1407 200.203 53.7765 201.171 52.4098 202.141L52.4097 202.141C51.3272 202.909 50.2432 203.678 49.0798 204.246C51.4189 193.602 61.2427 187.506 70.5428 185.894C75.0367 185.115 79.5911 185.071 84.1442 185.027H84.1445C89.0139 184.98 93.8818 184.932 98.6726 183.986C93.7314 187.53 87.835 187.278 81.896 187.025C79.0796 186.905 76.2537 186.785 73.5155 187.069C65.0924 187.941 57.0482 193.019 51.8054 200.774C56.8257 194.78 66.378 196.953 70.478 203.837C74.578 210.722 73.8631 220.389 70.3424 227.699C66.8218 235.008 60.9619 240.358 54.94 244.921C64.335 243.438 73.1573 237.49 78.9596 228.727C71.4921 241.754 61.824 253.051 50.6762 261.775ZM281.686 360.166C276.982 366.882 269.214 369.651 261.8 370.121C253.949 370.619 246.002 368.91 238.817 365.178C237.363 364.422 235.928 363.577 234.676 362.429C233.582 361.426 232.647 360.21 231.722 358.997C221.588 345.711 211.698 331.63 206.388 314.948C205.52 312.221 204.771 309.349 204.98 306.45C207.961 317.094 212.253 327.234 217.683 336.463C221.48 342.916 225.818 348.907 230.148 354.886C231.699 357.028 233.261 359.182 235.108 360.974C239.309 365.048 244.723 366.999 250.088 368.172C259.222 370.168 269.337 369.941 276.958 363.725C277.352 363.404 277.739 363.066 278.127 362.729C279.255 361.747 280.383 360.764 281.686 360.166ZM211.004 127.402C211.533 128.545 212.019 129.715 212.46 130.907C212.693 129.481 212.297 127.935 211.434 126.892L211.004 127.402ZM211.236 144.305C211.859 142.333 212.491 140.297 212.418 138.197C212.407 137.875 212.445 137.447 212.715 137.389C213.535 139.762 213.125 142.653 211.694 144.59L211.236 144.305ZM200.737 131.995C202.779 131.996 204.82 132.444 206.723 133.312C205.043 131.832 202.899 131.09 200.801 131.261C200.073 131.32 199.452 132.136 199.488 132.988C199.523 133.84 200.209 134.582 200.938 134.559C200.926 134.185 200.702 133.893 200.483 133.605L200.483 133.605C200.454 133.568 200.426 133.53 200.398 133.493C200.368 133.453 200.339 133.413 200.311 133.373C200.055 133.004 199.915 132.379 200.252 132.112C200.391 132.002 200.569 131.995 200.737 131.995ZM327.855 360.31C325.924 359.493 323.942 358.854 321.963 358.216L314.119 355.687C301.585 351.646 288.575 347.569 275.738 349.986C273.721 350.366 271.694 350.904 269.667 351.442C264.122 352.915 258.572 354.388 253.191 352.629C252.742 352.482 252.258 351.741 252.696 351.556C258.196 353.307 263.889 351.864 269.544 350.43C271.193 350.012 272.838 349.594 274.474 349.257C280.313 348.055 286.307 347.881 292.19 348.745C297.73 349.558 303.138 351.278 308.525 352.993L324.042 357.933C326.005 358.558 327.97 359.184 329.874 360.02C333.913 361.794 337.645 364.515 340.784 367.974C340.413 368.351 339.858 368.293 339.371 368.211C323.118 365.478 307.081 360.997 291.528 354.844C282.602 351.312 272.088 354.022 265.261 361.614C270.445 362.443 275.81 361.666 280.664 359.384C278.438 361.381 275.711 362.607 272.913 362.87C271.43 363.009 269.909 362.891 268.395 362.773C265.606 362.555 262.841 362.34 260.376 363.738L264.454 360.547C269.422 356.66 274.669 352.653 280.623 352.027C285.339 351.531 289.986 353.22 294.52 354.867L294.972 355.031L295.16 355.1C309.172 360.176 323.501 364.052 337.996 366.688C334.906 363.999 331.478 361.842 327.855 360.31ZM202.983 248.808C204.978 252.876 206.133 257.501 206.325 262.184C206.462 265.535 206.115 268.869 205.767 272.207L205.767 272.207L205.767 272.208C205.519 274.585 205.271 276.964 205.198 279.352C204.843 290.945 208.619 302.201 213.437 312.342C218.746 323.517 225.824 334.23 235.785 339.507C245.745 344.783 259.044 343.03 265.572 332.775C258.655 334.95 251.022 333.822 244.786 329.704C250.278 330.358 256.09 328.079 259.74 323.238C263.389 318.396 264.548 310.991 262.127 305.192C259.705 299.394 253.605 295.87 248.309 297.69C243.012 299.511 239.485 306.868 241.348 312.942C242.189 315.684 244.065 318.055 246.456 318.876C248.846 319.698 251.692 318.756 253.116 316.366C255.551 312.278 252.768 306.227 248.808 304.386C252.903 303.263 257.259 307.615 257.336 312.531C257.413 317.447 253.633 321.843 249.44 322.228C245.246 322.613 241.124 319.345 239.443 314.837C237.762 310.33 238.377 304.897 240.593 300.718C243.235 295.735 248.07 292.476 253.079 292.161C258.087 291.846 263.145 294.433 266.437 298.856C271.103 305.124 271.969 314.096 271.62 322.394C271.153 333.487 279.991 343.871 289.484 343.384C297.568 342.969 305.737 345.101 312.901 349.497C311.175 343.449 305.551 340.286 300.313 338.504C299.539 338.241 298.755 337.988 297.967 337.735L297.966 337.735C293.424 336.275 288.781 334.782 285.498 330.935C282.149 327.009 280.97 321.577 279.779 316.091C279.079 312.866 278.375 309.621 277.223 306.653C278.4 317.017 280.252 328.688 287.753 334.383C290.59 336.537 293.903 337.532 297.202 338.523L297.204 338.523L297.206 338.524C298.098 338.792 298.989 339.059 299.87 339.349C304.008 340.713 308.296 342.899 310.509 347.208C305.874 343.564 300.116 343.12 294.454 342.684L294.452 342.684C293.229 342.59 292.01 342.496 290.808 342.37C284.041 341.662 276.401 338.873 273.833 331.521C272.706 328.297 272.778 324.757 272.85 321.236L272.85 321.234C272.871 320.207 272.892 319.181 272.883 318.165C272.78 306.4 267.102 293.627 257.289 291.005C250.462 289.181 242.804 293.138 239.362 300.266C236.958 305.246 236.646 311.698 239.073 316.662C241.499 321.626 246.797 324.636 251.529 323.188C256.261 321.739 259.687 315.535 258.391 310.022C257.095 304.509 250.884 301.276 246.727 304.29C248.735 305.158 250.7 306.427 251.963 308.447C253.226 310.467 253.63 313.365 252.501 315.491C250.464 319.323 244.899 317.98 242.929 314.101C240.522 309.361 242.409 302.545 246.55 299.908C250.691 297.272 256.291 298.801 259.366 302.978C262.442 307.156 263 313.457 261.167 318.535C259.395 323.441 255.512 327.228 251.066 328.387C246.62 329.546 241.727 328.045 238.341 324.483C237.555 325.787 238.771 327.454 239.905 328.342C245.904 333.042 253.072 335.676 260.293 335.835C252.887 342.553 241.932 341.757 233.767 336.373C225.602 330.989 219.768 321.846 214.966 312.435C210.499 303.68 206.625 294.098 206.376 283.908C206.286 280.218 206.676 276.551 207.066 272.881C207.364 270.068 207.663 267.254 207.746 264.427C207.939 257.91 206.725 250.817 202.53 246.517C189.815 262.855 184.6 286.734 189.058 308.197C191.362 319.285 196.014 329.508 201.106 339.244C201.466 339.932 201.829 340.62 202.192 341.308L202.194 341.312C205.292 347.183 208.418 353.108 209.975 359.739C211.715 367.149 211.15 375.796 206.758 381.513C208.687 372.079 206.891 361.696 201.979 353.878C200.249 351.125 198.177 348.707 196.104 346.289L196.104 346.289C194.316 344.203 192.527 342.116 190.956 339.811C185.277 331.481 182.782 320.872 180.422 310.585C181.278 325.13 187.251 339.174 196.655 348.752C205.482 357.742 208.804 373.395 204.596 386.164C209.518 381.034 212.354 373.281 212.128 365.578C211.845 355.922 207.211 347.581 202.625 339.324C201.358 337.044 200.095 334.77 198.928 332.477C192.366 319.58 188.518 304.632 188.912 289.634C189.305 274.637 194.111 259.653 202.983 248.808Z" fill="#00160A"/>
</svg>
