<svg width="57" height="57" viewBox="0 0 57 57" fill="none" xmlns="http://www.w3.org/2000/svg">
<g clip-path="url(#clip0_643_86)">
<ellipse cx="27.9376" cy="27.9455" rx="27.9376" ry="27.9455" transform="matrix(0.707111 0.707103 -0.70711 0.707103 28.7639 -11.4185)" fill="#539C52"/>
<path d="M-0.0898944 56.9454L0.997662 24.1129L32.6521 55.767L-0.0898944 56.9454Z" fill="#539C52"/>
<path d="M0.800906 56.062C15.8966 48.5142 46.0881 28.1092 46.0881 6.87123" stroke="#2A3F2E" stroke-width="2"/>
<ellipse cx="18.5251" cy="18.5304" rx="18.5251" ry="18.5304" transform="matrix(0.688195 0.725526 -0.688195 0.725526 28.8938 1.5918)" fill="#E8EDDF"/>
<path d="M10.273 48.104L10.9748 25.7659L31.4031 47.3023L10.273 48.104Z" fill="#E8EDDF"/>
<ellipse cx="27.9376" cy="27.9455" rx="27.9376" ry="27.9455" transform="matrix(0.707111 0.707103 -0.70711 0.707103 28.7639 -11.4185)" fill="#539C52"/>
<path d="M-0.0898944 56.9454L0.997662 24.1129L32.6521 55.767L-0.0898944 56.9454Z" fill="#539C52"/>
<path d="M0.876709 56.0446C18.2902 41.2689 40.7779 27.2755 45.9416 6.75488" stroke="#2A3F2E" stroke-width="2" stroke-linecap="round"/>
<ellipse cx="18.5251" cy="18.5304" rx="18.5251" ry="18.5304" transform="matrix(0.688195 0.725526 -0.688195 0.725526 28.8938 1.5918)" fill="#E8EDDF"/>
<path d="M10.273 48.104L10.9748 25.7659L31.4031 47.3023L10.273 48.104Z" fill="#E8EDDF"/>
<circle cx="31.3991" cy="30.424" r="2.27653" fill="#EBA352"/>
<circle cx="20.9503" cy="26.4508" r="2.275" fill="#FA4253"/>
<circle cx="41.7391" cy="26.4508" r="2.275" fill="#0763BD"/>
</g>
<defs>
<clipPath id="clip0_643_86">
<rect width="57" height="57" fill="white"/>
</clipPath>
</defs>
</svg>
