<svg width="96" height="87" viewBox="0 0 96 87" fill="none" xmlns="http://www.w3.org/2000/svg">
<g clip-path="url(#clip0_1030_258)">
<ellipse cx="39.2514" cy="39.2626" rx="39.2514" ry="39.2626" transform="matrix(0.707111 0.707103 -0.70711 0.707103 46.0237 -16.1582)" fill="#539C52"/>
<path d="M5.48454 79.8898L7.01252 33.7611L51.4861 78.2342L5.48454 79.8898Z" fill="#539C52"/>
<path d="M6.73708 78.6504C27.9461 68.046 70.3643 39.3775 70.3643 9.53883" stroke="#2A3F2E" stroke-width="0.831804"/>
<ellipse cx="26.0272" cy="26.0346" rx="26.0272" ry="26.0346" transform="matrix(0.688195 0.725526 -0.688195 0.725526 46.207 2.12207)" fill="#E8EDDF"/>
<path d="M20.0449 67.4701L21.031 36.0857L49.7321 66.3437L20.0449 67.4701Z" fill="#E8EDDF"/>
<ellipse cx="39.2514" cy="39.2626" rx="39.2514" ry="39.2626" transform="matrix(0.707111 0.707103 -0.70711 0.707103 46.0247 -16.1572)" fill="#539C52"/>
<path d="M5.48551 79.8908L7.0135 33.7621L51.487 78.2351L5.48551 79.8908Z" fill="#539C52"/>
<path d="M6.84351 78.6256C31.3089 57.8661 62.9035 38.2059 70.1583 9.375" stroke="#2A3F2E" stroke-width="0.831804" stroke-linecap="round"/>
<ellipse cx="26.0272" cy="26.0346" rx="26.0272" ry="26.0346" transform="matrix(0.688195 0.725526 -0.688195 0.725526 46.2065 2.12012)" fill="#E8EDDF"/>
<path d="M20.0444 67.4682L21.0305 36.0838L49.7316 66.3417L20.0444 67.4682Z" fill="#E8EDDF"/>
<path d="M46.8689 43.1985C46.8936 43.3402 47.5092 46.6642 50.9725 46.6642C54.4362 46.6642 55.0513 43.3402 55.076 43.1985C55.1062 43.0268 55.0524 42.8487 54.9461 42.7601C54.8392 42.6722 54.7054 42.6983 54.6171 42.821C54.6067 42.836 53.5459 44.2899 50.9725 44.2899C48.399 44.2899 47.3377 42.836 47.3278 42.8218C47.2752 42.7466 47.205 42.707 47.1348 42.707C47.0888 42.707 47.0422 42.7237 46.9999 42.7577C46.8925 42.8463 46.8388 43.026 46.8689 43.1985Z" fill="#EBA352"/>
<ellipse cx="35.0535" cy="38.3741" rx="3.20343" ry="4.52249" fill="#FA4253"/>
<ellipse cx="64.2613" cy="38.3741" rx="3.20343" ry="4.52249" fill="#0763BD"/>
<path d="M7.84023 39.75C0.56097 52.1458 0.206837 57.8125 2.68605 63.125C5.16526 68.4375 17.9151 78 20.3943 80.125" stroke="black" stroke-width="1.41667"/>
<circle cx="21.4575" cy="82.25" r="4.25" fill="#D9D9D9"/>
<circle cx="21.4575" cy="82.25" r="2.125" fill="#EEE5E5"/>
<path d="M88.2199 65.9301C86.4989 68.3532 87.5315 68.3532 88.9083 67.7474C88.9331 67.7474 88.9578 67.7471 88.9824 67.7465C89.0724 67.1411 89.046 65.9301 88.2199 65.9301Z" fill="#B4B4B4"/>
<path d="M83.4012 66.233C85.0533 65.5061 85.8105 67.4446 84.778 68.0503C83.7454 68.0503 84.4719 67.1927 84.0897 66.8388C83.7293 66.5051 83.2676 66.4682 83.4012 66.233Z" fill="#B4B4B4"/>
<path d="M94.4154 53.209C94.4154 58.0279 93.3263 67.6385 88.9824 67.7465M88.9824 67.7465C88.9578 67.7471 88.9331 67.7474 88.9083 67.7474C87.5315 68.3532 86.4989 68.3532 88.2199 65.9301C89.046 65.9301 89.0724 67.1411 88.9824 67.7465ZM84.0897 66.8388C83.7293 66.5051 83.2676 66.4682 83.4012 66.233C85.0533 65.5061 85.8105 67.4446 84.778 68.0503C83.7454 68.0503 84.4719 67.1927 84.0897 66.8388ZM84.0897 66.8388C82.0987 67.1417 76.8618 62.2955 79.6151 54.4205" stroke="#B7B7B7" stroke-width="0.566667"/>
<path d="M81.8089 21.334C85.1144 22.3965 87.685 30.0465 87.685 37.9798M87.685 37.9798C84.1445 40.1048 77.0628 41.8757 80.2503 55.6882M87.685 37.9798C90.8737 37.9798 97.6029 47.1882 94.0612 54.6257" stroke="black" stroke-width="1.41667"/>
</g>
<defs>
<clipPath id="clip0_1030_258">
<rect width="96" height="87" fill="white"/>
</clipPath>
</defs>
</svg>
