<svg width="112" height="113" viewBox="0 0 112 113" fill="none" xmlns="http://www.w3.org/2000/svg">
<g clip-path="url(#clip0_818_259)">
<ellipse cx="55.4138" cy="55.4296" rx="55.4138" ry="55.4296" transform="matrix(0.707111 0.707103 -0.70711 0.707103 56.6807 -22.9297)" fill="#539C52"/>
<path d="M-0.551011 112.668L1.60615 47.5452L64.3923 110.331L-0.551011 112.668Z" fill="#539C52"/>
<path d="M1.21684 110.918C31.159 95.947 91.0435 55.4739 91.0435 13.3487" stroke="#2A3F2E" stroke-width="1.17431"/>
<ellipse cx="36.7443" cy="36.7548" rx="36.7443" ry="36.7548" transform="matrix(0.688195 0.725526 -0.688195 0.725526 56.939 2.87598)" fill="#E8EDDF"/>
<path d="M20.0047 95.1325L21.3968 50.8251L61.9159 93.5422L20.0047 95.1325Z" fill="#E8EDDF"/>
<ellipse cx="55.4138" cy="55.4296" rx="55.4138" ry="55.4296" transform="matrix(0.707111 0.707103 -0.70711 0.707103 56.6812 -22.9287)" fill="#539C52"/>
<path d="M-0.550523 112.669L1.60664 47.5462L64.3928 110.332L-0.550523 112.669Z" fill="#539C52"/>
<path d="M1.36719 110.883C35.9066 81.5752 80.5107 53.8196 90.7528 13.1172" stroke="#2A3F2E" stroke-width="1.17431" stroke-linecap="round"/>
<ellipse cx="36.7443" cy="36.7548" rx="36.7443" ry="36.7548" transform="matrix(0.688195 0.725526 -0.688195 0.725526 56.939 2.87598)" fill="#E8EDDF"/>
<path d="M20.0047 95.1315L21.3968 50.8241L61.9159 93.5412L20.0047 95.1315Z" fill="#E8EDDF"/>
<path d="M56.9002 60.8687C56.9346 61.0687 57.791 65.7614 62.6083 65.7614C67.4264 65.7614 68.282 61.0687 68.3163 60.8687C68.3583 60.6262 68.2835 60.3748 68.1356 60.2497C67.9869 60.1256 67.8008 60.1625 67.678 60.3357C67.6635 60.3569 66.1879 62.4094 62.6083 62.4094C59.0286 62.4094 57.5523 60.3569 57.5385 60.3368C57.4653 60.2307 57.3677 60.1748 57.2701 60.1748C57.206 60.1748 57.1412 60.1983 57.0825 60.2463C56.933 60.3715 56.8583 60.6251 56.9002 60.8687Z" fill="#EBA352"/>
<ellipse cx="41.1929" cy="54.0566" rx="4.52249" ry="6.38469" fill="#FA4253"/>
<ellipse cx="82.4273" cy="54.0566" rx="4.52249" ry="6.38469" fill="#0763BD"/>
</g>
<defs>
<clipPath id="clip0_818_259">
<rect width="112" height="113" fill="white"/>
</clipPath>
</defs>
</svg>
