<svg width="320" height="302" viewBox="0 0 320 302" fill="none" xmlns="http://www.w3.org/2000/svg">
<g opacity="0.4" clip-path="url(#clip0_978_572)">
<path d="M289.043 207.768C281.456 203.978 280.305 194.938 277.141 190.24C274.013 185.503 266.427 182.621 266.427 182.621C266.427 182.621 273.69 176.463 285.231 177.884C290.696 178.595 294.759 181.279 298.103 184.161C296.377 178.713 298.103 175.555 295.155 170.383C291.667 164.304 284.908 161.027 281.132 150.961C277.321 140.894 281.132 131.854 281.132 131.854C281.132 131.854 282.283 135.486 286.885 139.117C291.02 142.355 302.669 142.828 309.573 152.619C306.013 97.469 271.065 67.3085 246.903 51.5571C226.157 38.056 212.746 9.8693 156.656 13.9354C100.566 18.0411 88.0538 57.5577 74.1751 87.4418C66.4807 104.022 49.0785 107.694 34.4088 119.063C45.2672 115.944 52.1706 121.708 60.3324 123.524C70.1481 125.695 71.6942 118.116 80.5032 118.155C89.2762 118.195 92.5841 121.59 92.5841 121.59C92.5841 121.59 83.7751 120.129 80.9347 128.34C78.0583 136.551 74.5347 139.67 65.7257 138.367C56.9167 137.065 54.3998 137.775 49.7257 142.355C45.0515 146.973 34.265 143.578 28.0807 145.276C24.4493 146.263 19.4875 153.369 16.0358 159.014C18.8043 156.527 22.6156 153.803 27.7571 151.316C42.0672 144.289 60.3324 157.119 60.3324 157.119C60.3324 157.119 45.9144 160.751 37.5729 167.028C29.1953 173.305 23.2628 167.265 17.5459 169.436C14.6695 170.541 12.3684 171.647 10.7504 172.476C10.7504 172.502 10.7504 172.515 10.7504 172.515C9.59984 192.056 16.3234 209.426 27.7571 224.309C55.7302 260.707 111.856 282.261 149.681 284.867C189.195 287.551 258.589 271.405 291.523 223.362C294.436 219.138 297.06 214.598 299.362 209.86C296.054 209.821 292.278 209.347 289.043 207.768Z" fill="#F0868D"/>
<path d="M146.229 94.3503C146.229 106.904 136.953 117.129 125.483 117.129C114.014 117.129 104.737 106.904 104.737 94.3503C104.737 81.757 114.014 71.5325 125.483 71.5325C136.953 71.5325 146.229 81.757 146.229 94.3503Z" fill="#8DAD78"/>
<path d="M276.027 71.5325C276.027 76.1118 272.647 79.8227 268.512 79.8227C264.342 79.8227 260.962 76.1118 260.962 71.5325C260.962 66.9926 264.342 63.2817 268.512 63.2817C272.647 63.2817 276.027 66.9926 276.027 71.5325Z" fill="#8DAD78"/>
<path d="M291.524 223.362C258.589 271.405 189.196 287.551 149.681 284.867C111.856 282.262 55.7304 260.707 27.7573 224.309C38.4 211.321 65.6539 185.069 115.919 177.687C183.515 167.738 230.616 226.678 281.672 223.559C285.124 223.322 288.396 223.283 291.524 223.362Z" fill="#8DAD78"/>
<path d="M72.4494 70.2298C78.7415 49.5833 63.8561 59.0973 58.2472 72.2827C52.6382 85.468 42.0674 86.8892 42.0674 94.3504C42.0674 101.772 66.1932 90.8764 72.4494 70.2298Z" stroke="#8DAD78" stroke-width="0.614379"/>
<path d="M244.458 44.2934C244.458 44.2934 226.984 27.9894 219.865 22.7389C212.782 17.4885 215.91 10.4221 232.162 18.5544C248.449 26.7261 255.353 42.4775 253.231 45.7541C251.074 49.0307 244.458 44.2934 244.458 44.2934Z" stroke="#8DAD78" stroke-width="0.614379"/>
<path d="M82.0855 93.0871C82.0855 93.7977 81.5821 94.3503 80.9709 94.3503C80.3237 94.3503 79.8203 93.7977 79.8203 93.0871C79.8203 92.416 80.3237 91.8633 80.9709 91.8633C81.5821 91.8633 82.0855 92.416 82.0855 93.0871Z" fill="#8DAD78"/>
<path d="M91.5415 95.4556C91.5415 96.1268 91.0382 96.6794 90.4269 96.6794C89.7797 96.6794 89.2764 96.1268 89.2764 95.4556C89.2764 94.7451 89.7797 94.1924 90.4269 94.1924C91.0382 94.1924 91.5415 94.7451 91.5415 95.4556Z" fill="#8DAD78"/>
<path d="M123.182 58.4657C123.182 59.1368 122.679 59.6895 122.068 59.6895C121.42 59.6895 120.917 59.1368 120.917 58.4657C120.917 57.7551 121.42 57.2024 122.068 57.2024C122.679 57.2024 123.182 57.7551 123.182 58.4657Z" fill="#8DAD78"/>
<path d="M270.741 168.212C270.741 168.923 270.238 169.475 269.627 169.475C269.016 169.475 268.512 168.923 268.512 168.212C268.512 167.541 269.016 166.988 269.627 166.988C270.238 166.988 270.741 167.541 270.741 168.212Z" fill="#8DAD78"/>
<path d="M274.588 164.856C274.588 165.567 274.085 166.12 273.474 166.12C272.827 166.12 272.323 165.567 272.323 164.856C272.323 164.185 272.827 163.633 273.474 163.633C274.085 163.633 274.588 164.185 274.588 164.856Z" fill="#8DAD78"/>
<path d="M89.2765 89.1C89.2765 90.1659 88.4855 91.0739 87.4787 91.0739C86.472 91.0739 85.645 90.1659 85.645 89.1C85.645 87.9946 86.472 87.0867 87.4787 87.0867C88.4855 87.0867 89.2765 87.9946 89.2765 89.1Z" fill="#8DAD78"/>
<path d="M280.845 102.601C280.845 103.706 280.018 104.575 279.011 104.575C278.04 104.575 277.213 103.706 277.213 102.601C277.213 101.496 278.04 100.588 279.011 100.588C280.018 100.588 280.845 101.496 280.845 102.601Z" fill="#8DAD78"/>
<path d="M85.6449 162.527C85.6449 163.988 84.6022 165.133 83.3078 165.133C82.0134 165.133 80.9707 163.988 80.9707 162.527C80.9707 161.106 82.0134 159.961 83.3078 159.961C84.6022 159.961 85.6449 161.106 85.6449 162.527Z" stroke="white" stroke-width="0.614379"/>
<path d="M218.643 52.386C218.643 53.8072 217.6 54.952 216.306 54.952C215.011 54.952 213.933 53.8072 213.933 52.386C213.933 50.9648 215.011 49.7805 216.306 49.7805C217.6 49.7805 218.643 50.9648 218.643 52.386Z" stroke="white" stroke-width="0.614379"/>
<path d="M108.369 44.096C108.369 48.6754 104.989 52.3467 100.854 52.3467C96.7191 52.3467 93.3394 48.6754 93.3394 44.096C93.3394 39.5561 96.7191 35.8848 100.854 35.8848C104.989 35.8848 108.369 39.5561 108.369 44.096Z" stroke="white" stroke-width="0.614379"/>
<path d="M319.497 115.115C319.497 124.432 312.594 131.972 304.108 131.972C295.623 131.972 288.755 124.432 288.755 115.115C288.755 105.799 295.623 98.219 304.108 98.219C312.594 98.219 319.497 105.799 319.497 115.115Z" stroke="white" stroke-width="0.614379"/>
<path d="M31.245 197.228C31.245 206.544 24.3776 214.124 15.8922 214.124C7.40679 214.124 0.503418 206.544 0.503418 197.228C0.503418 187.911 7.40679 180.371 15.8922 180.371C24.3776 180.371 31.245 187.911 31.245 197.228Z" stroke="white" stroke-width="0.614379"/>
<path d="M132.422 25.4626C132.422 25.4626 129.186 27.3181 129.043 35.0951C128.863 42.9115 135.658 46.504 139.937 46.425L139.577 45.2012C139.577 45.2012 132.279 44.3327 130.373 37.5426C128.503 30.7131 132.638 26.1338 132.638 26.1338L132.422 25.4626Z" fill="#3D2624"/>
<path d="M250.391 161.343C250.391 161.343 248.881 173.66 229.25 178.358C209.582 183.055 189.304 170.739 189.304 170.739L192.612 170.383C192.612 170.383 204.081 177.687 217.816 176.779C231.587 175.871 239.389 166.712 239.389 166.712L250.391 161.343Z" fill="#3D2624"/>
<path fill-rule="evenodd" clip-rule="evenodd" d="M260.494 154.75C247.227 181.358 231.623 175.871 209.762 173.857C187.901 171.844 178.805 170.739 159.137 172.081C139.47 173.423 126.85 172.515 119.695 160.001C112.575 147.487 115.2 115.708 130.373 102.285C145.582 88.8631 147.703 64.9794 147.703 64.9794L193.295 36.1611C193.295 36.1611 191.641 62.8871 214.472 66.9138C237.303 70.9405 256.432 86.6129 255.209 101.812C255.209 101.812 273.762 128.143 260.494 154.75ZM254.202 100.588C254.202 100.588 253.915 83.0205 225.978 73.4275C225.978 73.4275 233.097 77.6516 242.086 85.3891C251.038 93.0871 253.375 100.588 253.375 100.588H254.202Z" fill="#3D2624"/>
<path d="M131.991 88.2708C131.991 88.2708 125.519 94.666 120.917 108.088C116.351 121.51 106.679 163.119 106.679 163.119L122.319 173.857L137.42 128.458L131.991 88.2708Z" fill="#C56E5D"/>
<path d="M194.337 152.816C191.928 160.553 192.539 169.001 195.955 176.226L196.818 180.213L199.119 191.109C183.335 206.149 161.438 211.203 147.991 207.926C134.508 204.689 131.092 192.569 131.092 192.569L133.178 176.581L129.582 140.973C129.582 140.973 126.814 136.314 125.627 125.537C124.44 114.76 131.991 88.2707 131.991 88.2707L156.512 77.4935L174.382 75.8354L204.225 88.2707L208.072 98.8901C207.964 104.772 204.009 119.852 199.91 134.143C197.969 140.894 195.955 147.486 194.337 152.816Z" fill="#F7DBC6"/>
<path d="M174.562 77.5726C171.757 83.1784 161.762 90.2053 157.699 88.6657C153.672 87.1261 156.944 79.2307 156.944 79.2307C156.992 78.099 157.028 77.0594 157.052 76.112C157.231 69.7956 157.195 67.1112 157.195 67.1112L174.562 54.4785C174.166 56.8077 173.951 59.4132 173.879 62.0581C173.663 69.7562 174.562 77.5726 174.562 77.5726Z" fill="#C56E5D"/>
<path d="M174.562 54.4785C174.166 56.8077 173.951 59.4132 173.879 62.0581C171.901 65.3742 168.593 70.2694 165.142 72.9538C161.582 75.7567 158.67 76.1515 157.052 76.112C157.232 69.7956 157.196 67.1112 157.196 67.1112L174.562 54.4785Z" fill="#AF5448"/>
<path d="M138.319 47.8068C138.319 47.8068 138.93 63.4002 148.926 70.4272C158.957 77.4541 172.944 62.7291 175.353 54.5969C177.762 46.4646 176.971 28.8972 176.971 28.8972C176.971 28.8972 163.739 19.2253 153.744 19.2253C143.748 19.2253 138.319 24.7127 138.319 24.7127C138.319 24.7127 138.319 39.6745 138.319 47.8068Z" fill="#C56E5D"/>
<path d="M149.753 19.5412C149.753 19.5412 149.429 25.2654 159.065 31.9765C168.665 38.6876 173.879 40.0299 173.879 40.0299L175.892 52.3862C175.892 52.3862 174.49 56.255 174.13 57.6367C173.699 59.1763 173.843 64.0714 173.843 64.0714C173.843 64.0714 181.968 62.7292 184.773 54.4785C184.773 54.4785 193.079 47.6884 193.366 35.3716C193.69 23.0547 187.865 19.2254 187.865 19.2254C187.865 19.2254 186.391 4.50045 171.577 1.97391C156.728 -0.552627 144.935 8.56659 144.935 8.56659C144.935 8.56659 137.708 7.46123 133.825 13.067C129.906 18.6727 132.422 25.4628 132.422 25.4628C132.422 25.4628 129.007 29.0947 131.02 35.0557C133.034 40.9773 138.319 41.7669 138.319 41.7669C138.319 41.7669 138.822 31.6212 141.519 26.5682C144.216 21.5151 149.753 19.5412 149.753 19.5412Z" fill="#3D2624"/>
<path d="M174.562 41.8459C174.562 41.8459 176.468 36.6744 180.387 36.1612C184.27 35.6085 184.558 43.1881 181.861 48.2412C179.164 53.2942 175.353 52.3073 175.353 52.3073L174.562 41.8459Z" fill="#C56E5D"/>
<path d="M172.656 36.1216C172.656 36.1216 175.281 44.7276 173.771 51.5177C173.771 51.5177 174.166 51.0834 174.742 50.1754C176 48.1621 176.503 40.543 177.079 37.9375L172.656 36.1216Z" fill="#3D2624"/>
<path d="M144.719 9.31663C144.719 9.31663 147.991 4.10565 154.211 2.01336C160.431 -0.118406 165.609 2.01336 165.609 2.01336L166.616 1.9344C166.616 1.9344 160.827 -1.14481 154.283 1.06591C147.739 3.23715 143.209 8.88238 143.209 8.88238L144.719 9.31663Z" fill="#3D2624"/>
<path d="M187.865 19.2253C187.865 19.2253 191.353 19.9359 193.402 24.0416C195.452 28.1472 193.33 32.3317 193.33 32.3317L192.971 31.8185C192.971 31.8185 194.625 28.2656 192.575 24.4363C190.526 20.5676 187.865 20.7649 187.865 20.7649V19.2253Z" fill="#3D2624"/>
<path d="M139.578 39.1219C139.578 39.1219 140.009 38.0955 142.957 38.1744C145.906 38.2139 147.703 40.0299 147.703 40.0299C147.703 40.0299 146.337 37.2665 143.641 36.8717C140.944 36.4769 139.65 38.6876 139.578 39.1219Z" fill="#3D2624"/>
<path d="M149.753 19.5413C149.753 19.5413 149.285 25.147 152.27 29.6869C155.29 34.2267 164.135 34.2267 164.135 34.2267L164.494 35.0952C164.494 35.0952 155.757 35.1742 152.198 31.7397C148.674 28.3052 148.279 22.5415 148.926 19.5413H149.753Z" fill="#3D2624"/>
<path d="M155.686 39.477C155.686 39.477 156.189 38.2927 159.605 38.3717C163.02 38.4506 165.07 40.5429 165.07 40.5429C165.07 40.5429 163.488 37.3058 160.396 36.8715C157.268 36.3978 155.757 38.9638 155.686 39.477Z" fill="#3D2624"/>
<path d="M147.704 54.281C147.704 54.281 148.135 54.7547 149.861 55.3074C151.551 55.8601 152.737 55.3074 152.737 55.3074C152.737 55.3074 152.234 54.281 150.904 54.0441C149.609 53.8467 147.704 54.281 147.704 54.281Z" fill="#913D37"/>
<path d="M147.704 40.0298C147.704 40.0298 148.638 41.1351 148.998 44.017C149.322 46.8593 148.998 49.1095 148.998 49.1095C148.998 49.1095 147.811 41.6483 147.704 40.0298Z" fill="#AF5448"/>
<path d="M139.937 43.2274C139.937 43.2274 141.411 43.938 143.245 44.1353C145.043 44.3722 147.308 43.7406 147.308 43.7406C147.308 43.7406 146.481 41.2535 144.539 40.6614C141.483 39.7534 139.937 43.2274 139.937 43.2274Z" fill="#AF5448"/>
<path d="M155.686 43.6222C155.686 43.6222 156.009 41.0957 158.957 40.543C161.906 39.9903 165.393 43.3854 165.393 43.3854C165.393 43.3854 159.605 46.4251 155.686 43.6222Z" fill="#AF5448"/>
<path d="M143.712 44.096C141.735 44.0566 139.937 43.2275 139.937 43.2275L139.578 43.5039C139.326 43.7013 138.787 43.7802 138.787 43.7802C139.326 44.0171 139.865 44.0171 140.189 43.9381C140.872 44.3724 142.094 44.9645 143.641 45.004C146.085 45.0435 147.308 44.096 147.308 44.096V43.7407C147.308 43.7407 145.69 44.1355 143.712 44.096Z" fill="#3D2624"/>
<path d="M165.393 43.3853C165.393 43.3853 163.02 44.1748 160.575 44.2537C158.094 44.3327 155.829 43.5432 155.829 43.5432L155.362 43.859C155.074 44.0564 154.391 44.1748 154.391 44.1748C155.074 44.4117 155.757 44.3722 156.153 44.2932C157.052 44.7275 158.562 45.2802 160.503 45.2012C163.56 45.0828 164.494 44.2932 165.178 43.8195C165.285 43.7405 165.393 43.3853 165.393 43.3853Z" fill="#3D2624"/>
<path d="M147.703 59.2551C147.703 59.2551 148.207 59.5315 150.22 59.9657C152.234 60.4 157.052 59.2551 157.052 59.2551C157.052 59.2551 153.492 58.584 152.378 58.663C151.227 58.7419 150.472 59.3735 150.472 59.3735C150.472 59.3735 149.429 58.4656 148.818 58.4656C148.171 58.4656 146.984 58.8603 146.984 58.8603L147.703 59.2551Z" fill="#913D37"/>
<path d="M148.422 61.6238C148.422 61.6238 149.789 62.6502 151.802 62.6897C153.78 62.7686 155.973 61.8606 155.973 61.8606C155.973 61.8606 154.75 63.7555 152.198 64.0714C149.609 64.3477 148.422 61.6238 148.422 61.6238Z" fill="#AF5448"/>
<path d="M123.829 202.281L132.458 182.029C132.458 182.029 138.175 188.622 155.685 189.293C173.195 189.964 196.818 180.252 196.818 180.252C196.818 180.252 202.858 197.386 202.858 203.741C202.858 210.137 168.306 235.284 168.306 235.284L147.811 233.626L123.829 202.281Z" fill="#743F3D"/>
<path d="M122.858 235.284C122.858 235.284 117.213 237.692 115.272 238.718C115.272 238.718 106.822 239.666 103.407 240.732C100.027 241.837 99.1639 246.85 98.3369 252.259C97.51 257.628 91.1819 264.852 89.2044 268.642C87.2268 272.392 88.1617 276.853 88.4493 277.761C88.7369 278.709 87.5864 281.827 89.0246 283.801C90.4268 285.735 91.2538 284.749 92.0088 284.235C92.7999 283.762 93.0515 282.064 93.0515 282.064C93.0515 282.064 95.2448 281.59 96.0718 280.88C96.8628 280.209 96.0358 280.169 98.0493 279.459C100.063 278.748 101.105 278.195 102.256 277.287C103.371 276.379 109.735 264.22 113.798 260.312C117.861 256.443 125.195 255.101 125.195 255.101L122.858 235.284Z" fill="#C56E5D"/>
<path d="M233.636 257.114C219.829 260.944 189.843 263.628 162.984 265.365C135.299 267.142 110.957 267.971 110.957 267.971L106.822 253.68L103.191 241.008L183.658 223.48C183.658 223.48 181.465 205.202 198.975 195.333C198.975 195.333 251.146 195.806 263.766 211.913C276.422 228.02 262.759 249.061 233.636 257.114Z" fill="#743F3D"/>
<path d="M155.074 252.101C155.074 252.101 160.755 254.509 162.697 255.496C162.697 255.496 171.146 256.444 174.526 257.549C177.941 258.654 178.804 263.628 179.631 269.037C180.458 274.406 186.786 281.669 188.728 285.42C190.706 289.17 189.771 293.631 189.483 294.539C189.231 295.486 190.346 298.645 188.944 300.579C187.541 302.513 186.715 301.526 185.924 301.053C185.132 300.579 184.881 298.842 184.881 298.842C184.881 298.842 182.724 298.368 181.897 297.697C181.07 296.987 181.932 296.987 179.883 296.276C177.87 295.526 176.827 294.973 175.712 294.065C174.598 293.157 168.198 280.998 164.135 277.13C160.072 273.221 152.773 271.879 152.773 271.879L155.074 252.101Z" fill="#C56E5D"/>
<path d="M128.252 198.728C128.252 198.728 59.506 198.728 48.4678 212.15C37.4655 225.572 43.5779 242.666 52.4588 248.39C61.3397 254.075 154.248 276.893 154.248 276.893L159.137 245.706L145.439 241.008L152.773 230.191L128.252 198.728Z" fill="#743F3D"/>
<path d="M128.072 201.61C128.072 201.61 142.418 221.111 150.22 226.914C150.22 226.914 134.184 225.099 128.072 201.61Z" fill="#5E3030"/>
<path d="M72.6294 218.506C72.6294 218.506 84.5665 220.203 103.191 224.546C121.852 228.928 145.438 241.008 145.438 241.008C145.438 241.008 121.241 222.888 102.292 218.506C83.344 214.163 72.6294 218.506 72.6294 218.506Z" fill="#5E3030"/>
<path d="M139.146 236.586C139.146 236.586 194.589 218.427 217.816 214.282C217.816 214.282 168.701 230.467 145.438 241.008L139.146 236.586Z" fill="#5E3030"/>
<path d="M192.611 200.031C192.611 200.031 165.717 214.598 156.656 229.362C156.656 229.362 185.025 213.413 192.611 200.031Z" fill="#5E3030"/>
<path fill-rule="evenodd" clip-rule="evenodd" d="M71.8383 205.084C71.8383 205.084 69.5731 209.032 65.2585 210.887C62.1664 212.19 59.4338 212.466 55.7664 214.282C52.099 216.137 47.5687 220.598 46.5979 218.624C45.6271 216.69 51.1282 212.269 51.1282 212.269C51.1282 212.269 47.317 214.44 45.1597 215.585C43.0383 216.769 40.7012 218.427 40.881 215.585C41.0608 212.782 47.8563 208.676 47.8563 208.676C47.8563 208.676 40.9889 210.729 39.9102 211.282C38.8316 211.874 35.5597 212.269 36.7821 209.624C38.0406 206.979 44.7282 205.123 44.7282 205.123C42.7507 205.044 39.4788 202.992 39.4788 200.939C39.4788 198.886 42.499 195.254 43.6855 193.32C44.4765 192.056 45.4473 191.306 46.0945 191.583C45.699 190.911 45.7349 190.359 46.6698 190.556C48.6473 190.951 56.1979 190.872 60.0451 191.622C62.2743 192.096 63.7125 192.727 64.5035 193.201L107.038 161.541C117.753 161.659 122.319 173.857 122.319 173.857C112 188.069 79.4608 201.965 71.8383 205.084ZM55.5147 195.728C54.4361 195.057 50.3372 194.583 48.4675 193.714C47.7484 193.359 47.0653 192.806 46.5619 192.214C46.6338 192.491 46.6698 192.806 46.6698 193.201C46.6698 195.846 43.29 199.281 43.7574 199.873C44.1889 200.425 47.6765 201.61 50.6967 200.425C53.717 199.281 56.5574 196.438 55.5147 195.728Z" fill="#C56E5D"/>
<path d="M262.364 133.709C262.364 133.709 266.211 146.697 263.587 156.369C260.926 166.041 250.787 168.212 250.787 168.212L252.405 166.001C252.405 166.001 262.4 164.146 262.975 149.105C263.479 135.722 262.364 133.709 262.364 133.709Z" fill="#3D2624"/>
<path d="M56.0537 195.609C56.0537 195.609 59.4335 197.701 63.1728 197.701C66.9121 197.701 62.4178 199.517 59.6133 198.609C56.8447 197.701 56.0537 195.609 56.0537 195.609Z" fill="#AF5448"/>
<path d="M67.8831 202.913C67.8831 202.913 65.582 202.991 62.382 204.807C59.1461 206.663 57.4921 211.361 56.6292 210.611C55.8022 209.86 58.1034 202.636 67.8831 202.913Z" fill="#AF5448"/>
<path d="M45.7349 205.005C45.7349 205.005 52.7461 211.242 53.5731 211.321C54.436 211.4 50.6967 205.36 45.7349 205.005Z" fill="#AF5448"/>
<path d="M132.135 138.091C132.135 138.091 135.586 136.078 146.157 136.078C156.728 136.078 174.31 140.618 174.31 140.618C174.31 140.618 141.879 140.815 132.135 138.091Z" fill="#EFC9B6"/>
<path d="M195.955 176.463L196.818 180.45L181.825 185.503C181.825 185.503 189.447 165.291 189.303 149.816C189.16 134.38 193.762 115.115 193.762 115.115L199.91 134.341C197.969 141.131 195.955 147.684 194.337 153.013C191.964 160.751 192.539 169.199 195.955 176.463Z" fill="#EFC9B6"/>
<path fill-rule="evenodd" clip-rule="evenodd" d="M269.987 225.493C269.052 224.664 262.652 221.269 262.652 221.269C262.652 221.269 268.621 226.678 268.297 229.52C268.009 232.323 265.996 230.23 264.09 228.612C262.221 227.033 258.805 224.151 258.805 224.151C258.805 224.151 263.479 229.599 262.185 231.336C260.89 233.033 257.187 227.743 253.915 225.177C250.643 222.651 247.982 221.822 245.178 219.887C241.223 217.203 239.389 213.69 239.389 213.69C235.829 209.229 210.337 185.345 205.483 170.383C205.483 170.383 191.856 117.839 193.403 106.075C194.949 94.3502 204.225 88.2708 204.225 88.2708C204.225 88.2708 211.704 92.6527 215.083 108.444C217.636 120.484 219.829 147.684 221.412 158.422L249.888 202.399C250.787 202.202 251.973 202.044 253.555 202.044C257.438 202.083 264.881 203.702 266.859 203.741C267.83 203.741 267.794 204.255 267.29 204.847C267.937 204.689 268.764 205.636 269.34 207.018C270.167 209.189 272.54 213.374 272.18 215.387C271.856 217.4 268.261 218.743 266.319 218.427C266.319 218.427 272.576 221.624 273.331 224.467C274.122 227.309 270.958 226.283 269.987 225.493ZM268.189 213.453C268.728 212.979 265.96 208.913 266.427 206.307C266.499 205.913 266.571 205.597 266.715 205.36C266.104 205.834 265.349 206.268 264.594 206.426C262.58 206.9 258.481 206.544 257.331 207.018C256.144 207.452 258.481 210.847 261.25 212.624C264.018 214.4 267.65 213.926 268.189 213.453Z" fill="#C56E5D"/>
<path d="M256.432 207.452C256.432 207.452 253.052 209.545 249.313 209.545C245.573 209.545 250.068 211.361 252.872 210.453C255.641 209.545 256.432 207.452 256.432 207.452Z" fill="#AF5448"/>
<path d="M242.193 212.94C242.193 212.94 244.495 213.058 247.694 214.874C250.894 216.729 252.584 221.427 253.411 220.677C254.274 219.927 251.973 212.703 242.193 212.94Z" fill="#AF5448"/>
<path d="M263.478 217.243C263.478 217.243 256.467 223.48 255.604 223.559C254.777 223.638 258.517 217.558 263.478 217.243Z" fill="#AF5448"/>
<path d="M153.995 82.3887C153.995 82.3887 150.652 89.3367 155.973 91.2711C161.258 93.166 170.355 86.5338 174.957 81.6387C174.957 81.6387 168.845 92.4159 158.957 94.1529C149.034 95.8899 151.335 84.7574 153.995 82.3887Z" fill="#EFC9B6"/>
</g>
<defs>
<clipPath id="clip0_978_572">
<rect width="320" height="302" fill="white"/>
</clipPath>
</defs>
</svg>
