<svg width="28" height="28" viewBox="0 0 28 28" fill="none" xmlns="http://www.w3.org/2000/svg">
<path d="M2.71395 12.6264L0 7.959H1.55873V2.41752e-05H15.59V2.20306H3.67183V7.95895H5.23056L2.71395 12.6264ZM18.8902 10.85H16.3562L21.044 0H22.922L27.5662 10.8616H25.0003L24.0338 8.47562H19.825L18.8902 10.85ZM20.6318 6.44381H23.2442L21.9321 3.02743L20.6318 6.44381ZM6.53089 17.5608H7.84867V21.1398C7.53848 21.2962 7.19455 21.374 6.84722 21.3661C6.46011 21.3597 6.08188 21.2484 5.75299 21.044C5.60134 20.9121 5.43363 20.7999 5.25371 20.7101C5.85182 20.134 6.17769 19.3313 6.15067 18.5012C6.15067 16.6755 4.98962 15.4506 3.24805 15.4506C2.18103 15.435 1.18618 15.9877 0.635697 16.902L0.554438 17.0384L1.97089 18.6203L2.11309 18.3474C2.20106 18.1313 2.3511 17.9461 2.54442 17.8155C2.73765 17.6847 2.96535 17.6143 3.19865 17.6131C3.75885 17.6131 4.11007 18.0252 4.11007 18.687C4.11007 19.166 3.95917 19.9699 2.94902 19.9699L2.24661 19.97V22.1296H3.25677C4.10724 22.1296 4.53687 22.5128 4.53687 23.2703C4.53687 23.8915 4.22337 24.5533 3.34683 24.5533C2.33667 24.5533 1.78524 23.6825 1.64011 23.3922L1.49498 23.1252L1.20876e-05 24.8174L0.0899642 24.9538C0.797767 26.0623 2.02286 26.7324 3.33799 26.7302C5.24208 26.7302 6.58021 25.334 6.62666 23.3196C7.02463 23.4571 7.45521 23.4693 7.86027 23.3544V27.5748H9.99952L9.99943 17.5608H12.0458V27.5748H14.1851V17.5608H15.828L15.8279 15.529H6.53083L6.53089 17.5608ZM22.3414 18.6639H23.9002L23.9001 25.1077H16.8409V27.5749H26.0132L26.0133 18.6639H27.5749L24.858 13.4188L22.3414 18.6639Z" fill="black"/>
</svg>
