<svg width="88" height="107" viewBox="0 0 88 107" fill="none" xmlns="http://www.w3.org/2000/svg">
<path d="M49.6169 22.2612C49.0848 25.4252 46.6902 27.8506 43.631 27.8506C40.7047 27.8506 38.1771 25.4248 37.645 22.2612H30.728L35.1178 48.7323L43.6314 48.9432L52.1446 48.7323L56.5344 22.2612H49.6169Z" fill="#FDB171"/>
<path d="M53.816 9.81668V9.50032C53.816 9.07851 53.683 8.65669 53.683 8.34033C52.8385 8.74285 51.8746 8.96113 50.8893 8.97305V9.39487C50.8893 9.81668 51.0224 10.1349 51.0224 10.3439C51.2346 10.1818 51.5279 10.1043 51.8204 10.133C52.4855 10.2385 53.0175 11.1876 52.7538 12.1367C52.6208 12.9803 52.0888 13.613 51.4237 13.8239C51.2907 13.8239 51.1577 13.9294 51.0247 13.8239H50.8917C50.3596 15.4057 49.6946 16.777 49.0295 17.3042C48.0961 18.0443 47.4334 18.6751 46.9014 19.097V22.4718C49.1625 22.3664 51.2912 24.8976 57.8091 21.5228C56.7451 21.7337 55.0159 20.9955 55.814 20.7827C56.6121 20.57 58.7407 20.6773 61.4009 18.6737C59.8048 18.8846 56.0805 18.3573 59.2727 17.4082C55.5456 17.3046 54.4811 13.8243 53.816 9.81668Z" fill="#6E4020"/>
<path d="M39.9064 17.6477V21.8818C39.8734 22.1069 39.9157 22.3349 40.0292 22.543C40.3974 24.1303 41.6239 25.3207 43.2186 25.3207H43.5868C45.1816 25.3207 46.4085 24.1303 46.7768 22.543C46.7768 22.2784 46.8995 22.0139 46.8995 21.7493V17.5156C45.1802 17.6477 41.5011 17.6477 39.9064 17.6477Z" fill="#EC9E5D"/>
<rect x="37.645" y="22.2612" width="12.1049" height="9.70246" fill="#EC9E5D"/>
<path d="M15.5632 14.3516L10.9074 14.9843L10.2423 9.07857C9.30892 8.86766 8.91222 8.23494 8.38018 7.28586L7.44678 4.22734C9.44193 3.27826 11.7036 3.06735 14.0978 2.85645L14.4968 4.86006L15.5609 4.64915V6.75822C15.5051 7.35238 15.1141 7.89485 14.4968 8.23457L13.6987 8.44548L15.5632 14.3516Z" fill="#E6B07C"/>
<path d="M17.0265 4.96554C13.4649 5.73793 9.80705 6.19765 6.11876 6.33644L5.71973 4.43828C9.28133 3.66591 12.9392 3.20618 16.6275 3.06738L17.0265 4.96554Z" fill="#3D4545"/>
<ellipse cx="3.72475" cy="5.59809" rx="3.72475" ry="2.95307" fill="#3D4545"/>
<ellipse cx="19.0221" cy="3.70014" rx="3.72475" ry="2.95307" fill="#3D4545"/>
<path d="M2.26098 4.75478C1.72894 5.3875 1.46292 5.3875 1.06388 5.28205C0.664854 5.17659 0.531844 4.64932 0.930875 4.12206C1.32991 3.59479 1.99496 3.38203 2.39399 3.70024C2.66001 3.91115 2.66001 4.12169 2.26098 4.75478Z" fill="white"/>
<path d="M17.4255 2.75087C16.8935 3.38359 16.6275 3.38359 16.2284 3.27814C15.8294 3.17269 15.6964 2.64542 16.0954 2.11815C16.4945 1.59088 17.1595 1.37813 17.5585 1.69634C17.8246 1.90724 17.9576 2.2236 17.4255 2.75087Z" fill="white"/>
<path d="M12.5038 3.91084C12.6368 4.33265 12.7698 4.54356 13.1689 4.54356H13.7009C13.9669 4.54356 13.8339 4.54356 13.9669 4.43811C14.0999 4.33265 14.0999 4.01629 14.0999 3.80539V2.43449C14.0949 2.23896 14.0004 2.05155 13.8339 1.90722C13.6632 1.76333 13.3962 1.721 13.1689 1.80177H12.9028C12.5038 1.80177 12.2378 2.11813 12.2378 2.54179L12.5038 3.91084Z" fill="#FDB171"/>
<path d="M10.7748 4.33215C10.7748 4.54306 10.9078 4.64851 11.1738 4.85942C11.3446 5.00331 11.6115 5.04564 11.8389 4.96487C12.0781 4.93731 12.2899 4.82772 12.418 4.66522C12.5461 4.50273 12.5775 4.30378 12.5039 4.12124L12.3709 2.32853C12.3709 2.11763 12.2379 2.01217 12.1049 1.80127C11.9342 1.65738 11.6672 1.61505 11.4399 1.69581H11.1738C10.7748 1.69581 10.5088 2.01217 10.5088 2.43584L10.7748 4.33215Z" fill="#FDB171"/>
<path d="M9.17883 4.64929C9.31184 5.07111 9.44485 5.38932 9.97689 5.28201H10.1099C10.3759 5.28201 10.5089 5.17656 10.6419 4.96565C10.8233 4.83025 10.8767 4.61867 10.775 4.43839L10.5089 2.96204C10.4811 2.791 10.3646 2.6369 10.1874 2.53683C10.0103 2.43675 9.78852 2.39977 9.57552 2.43477H9.3095C9.04348 2.43477 8.91047 2.54022 8.77746 2.75113C8.65676 2.90916 8.6097 3.09572 8.64445 3.2784L9.17883 4.64929Z" fill="#FDB171"/>
<path d="M7.71517 4.75439C7.70429 4.8967 7.77085 5.03589 7.89801 5.1367C8.02517 5.23752 8.20072 5.29029 8.38022 5.28166H8.51323C8.91396 5.2476 9.20829 4.96758 9.17828 4.64894L9.04527 3.59441C9.04057 3.44312 8.94325 3.30311 8.78443 3.21917C8.6256 3.13522 8.42517 3.11784 8.24721 3.17259H7.98119C7.58216 3.17259 7.31614 3.48895 7.44915 3.69986L7.71517 4.75439Z" fill="#FDB171"/>
<path d="M12.1049 10.0275L11.8389 8.55116C11.5773 7.99207 11.6138 7.37268 11.9399 6.83534C12.266 6.298 12.8538 5.88891 13.568 5.70207C13.568 5.70207 13.834 5.06935 13.701 4.96204L13.036 4.43477C12.3709 3.90751 12.3709 3.38024 12.5039 3.16933L12.6369 3.06388C12.7312 2.96434 12.879 2.90576 13.036 2.90576C13.193 2.90576 13.3408 2.96434 13.435 3.06388L14.2331 3.59115L15.4302 4.33117C15.5632 4.43662 15.6962 4.54208 15.6962 4.64753V6.7566C15.6404 7.35075 15.2495 7.89323 14.6321 8.23295L13.9671 8.65476L15.6962 14.2442L13.036 14.666L12.1049 10.0275Z" fill="#FDB171"/>
<path d="M71.8311 14.3516L76.4869 14.9843L77.1519 9.07857C78.0853 8.86766 78.482 8.23494 79.0141 7.28586L79.9475 4.22734C77.9523 3.27826 75.6907 3.06735 73.2965 2.85645L72.8975 4.86006L71.8334 4.64915V6.75822C71.8891 7.35238 72.2801 7.89485 72.8975 8.23457L73.6955 8.44548L71.8311 14.3516Z" fill="#E6B07C"/>
<path d="M70.2349 4.96554C73.7965 5.73792 77.4544 6.19764 81.1426 6.33644L81.5417 4.43828C77.9801 3.66591 74.3222 3.20619 70.6339 3.06738L70.2349 4.96554Z" fill="#3D4545"/>
<ellipse cx="83.5373" cy="5.59809" rx="3.72475" ry="2.95307" fill="#3D4545"/>
<ellipse cx="68.2399" cy="3.70014" rx="3.72475" ry="2.95307" fill="#3D4545"/>
<path d="M82.6061 4.22719C83.2711 3.69992 83.2711 3.48716 83.0051 3.17265C82.7391 2.85814 82.207 2.85629 81.542 3.38356C81.0099 3.80537 80.8769 4.33264 81.276 4.54355C81.675 4.75445 82.074 4.75445 82.6061 4.22719Z" fill="white"/>
<path d="M66.643 2.7511C67.175 2.11838 67.042 1.90747 66.776 1.69657C66.5099 1.48566 65.8426 1.59111 65.4459 2.11838C65.0492 2.64565 65.0468 3.17292 65.4459 3.27837C65.8449 3.38382 66.1109 3.27837 66.643 2.7511Z" fill="white"/>
<path d="M74.7577 3.91084C74.6247 4.33265 74.4917 4.54356 74.0927 4.54356H73.5607C73.2946 4.54356 73.4276 4.54356 73.2946 4.43811C73.1616 4.33265 73.1616 4.01629 73.1616 3.80539V2.43449C73.1666 2.23896 73.2612 2.05155 73.4276 1.90722C73.5984 1.76333 73.8653 1.721 74.0927 1.80177H74.3587C74.7577 1.80177 75.0238 2.11813 75.0238 2.54179L74.7577 3.91084Z" fill="#FDB171"/>
<path d="M76.4869 4.33304C76.4869 4.54395 76.3539 4.64941 76.0879 4.86031C75.9172 5.0042 75.6502 5.04653 75.4228 4.96577C75.1836 4.93821 74.9718 4.82862 74.8437 4.66612C74.7156 4.50362 74.6842 4.30467 74.7578 4.12214L74.8908 2.32943C74.8908 2.11852 75.0238 2.01307 75.1568 1.80216C75.2898 1.59126 75.5558 1.59126 75.8219 1.69671H76.0879C76.4869 1.69671 76.7529 2.01307 76.7529 2.43673L76.4869 4.33304Z" fill="#FDB171"/>
<path d="M78.0851 4.64929C77.9521 5.07111 77.8191 5.38932 77.2871 5.28201H77.1517C76.8857 5.28201 76.7527 5.17656 76.6197 4.96565C76.4382 4.83031 76.3848 4.61866 76.4867 4.43839L76.7527 2.96204C76.7805 2.791 76.897 2.6369 77.0742 2.53683C77.2514 2.43675 77.4731 2.39977 77.6861 2.43477H77.9521C78.2181 2.43477 78.3512 2.54022 78.4842 2.75113C78.6049 2.90916 78.6519 3.09572 78.6172 3.2784L78.0851 4.64929Z" fill="#FDB171"/>
<path d="M79.5463 4.75439C79.5572 4.8967 79.4906 5.03589 79.3634 5.1367C79.2363 5.23752 79.0607 5.29029 78.8812 5.28166H78.7482C78.3475 5.2476 78.0532 4.96758 78.0832 4.64894L78.2162 3.59441C78.2209 3.44312 78.3182 3.30311 78.477 3.21917C78.6358 3.13522 78.8363 3.11784 79.0142 3.17259H79.2803C79.6793 3.17259 79.9453 3.48895 79.8123 3.69986L79.5463 4.75439Z" fill="#FDB171"/>
<path d="M75.2919 10.0275L75.5579 8.55116C75.8194 7.99206 75.7829 7.37268 75.4568 6.83534C75.1307 6.298 74.543 5.88891 73.8287 5.70207C73.8287 5.70207 73.5627 5.06935 73.6957 4.96204L74.3608 4.43477C75.0258 3.90751 75.0258 3.38024 74.8928 3.16933L74.7598 3.06388C74.6656 2.96434 74.5178 2.90576 74.3608 2.90576C74.2038 2.90576 74.056 2.96434 73.9618 3.06388L73.1637 3.59115L71.9666 4.33117C71.8336 4.43662 71.7006 4.54208 71.7006 4.64753V6.7566C71.7563 7.35075 72.1473 7.89323 72.7647 8.23295L73.4297 8.65476L71.6982 14.246L74.2254 14.6678L75.2919 10.0275Z" fill="#FDB171"/>
<path d="M14.6327 100.725C13.9676 102.201 10.9079 101.885 10.7749 100.303C14.1006 86.6987 14.7657 77.2072 23.4118 73.6214C24.8749 73.1996 26.205 72.5668 28.3337 73.4105H28.4667C29.4401 73.8138 30.1621 74.5163 30.4638 75.3536C30.7656 76.1909 30.6206 77.0897 30.0628 77.8399C24.8749 89.5459 17.8249 96.2957 14.6327 100.725Z" fill="#FDB171"/>
<path d="M72.6298 100.725C73.2949 102.201 76.3546 101.885 76.4876 100.303C73.1618 86.6987 72.4968 77.2072 63.8507 73.6214C62.3875 73.1996 61.057 72.5668 58.9288 73.4105H58.7944C57.821 73.8138 57.099 74.5163 56.7972 75.3536C56.4955 76.1909 56.6405 77.0897 57.1983 77.8399C62.388 89.5459 69.4352 96.2957 72.6298 100.725Z" fill="#FDB171"/>
<path d="M55.7361 28.1673L72.4968 26.48C74.2503 26.2907 75.4913 25.0249 75.2901 23.6309C75.1194 22.2428 73.5863 21.2144 71.8313 21.311L53.8735 22.3655V27.0058C53.921 27.3575 54.1455 27.6791 54.4961 27.8977C54.8468 28.1164 55.2939 28.2136 55.7361 28.1673Z" fill="#FFCF9F"/>
<path d="M15.0317 26.4798C14.1815 26.4888 13.3629 26.225 12.7617 25.7483C12.1605 25.2717 11.8277 24.6226 11.839 23.9486L10.1099 9.07854L14.1006 8.55127L18.2244 23.9486C18.2583 24.6278 17.9328 25.2873 17.3266 25.768C16.7203 26.2486 15.8884 26.5067 15.0317 26.4798Z" fill="#FDB171"/>
<path d="M72.2306 26.4798C73.0808 26.4888 73.8994 26.225 74.5006 25.7483C75.1018 25.2717 75.4346 24.6226 75.4233 23.9486L77.1524 9.07854L73.1617 8.55127L69.0379 23.9486C69.0266 24.6226 69.3593 25.2717 69.9606 25.7483C70.5618 26.225 71.3804 26.4888 72.2306 26.4798Z" fill="#FDB171"/>
<path d="M17.1602 106.42C15.1651 107.053 9.57815 107.053 7.58253 106.42C7.17583 106.263 6.91776 105.935 6.91748 105.576V103.889H17.9583V105.576C17.9955 105.976 17.6547 106.336 17.1602 106.42Z" fill="#EDEDED"/>
<path d="M14.3664 103.467H11.4401L11.3071 99.6707C11.7062 98.6161 14.9007 98.7216 14.9007 99.987L14.3664 103.467Z" fill="#CC350E"/>
<path d="M17.8249 104.312C17.8249 104.523 17.6919 104.629 17.5589 104.839C16.3618 105.579 8.51325 105.683 7.18315 104.839C6.11907 103.679 8.24723 100.937 10.9079 99.3555L11.706 99.9882C12.1415 100.219 12.3531 100.638 12.238 101.043C12.105 102.308 11.972 103.258 12.77 103.258C13.5681 103.258 13.4351 102.309 13.5681 101.043C13.5907 100.623 13.9791 100.272 14.5015 100.199C14.8394 100.099 15.1546 99.957 15.4349 99.7773C16.3618 100.619 18.2239 103.045 17.8249 104.312Z" fill="#DE4922"/>
<path d="M14.2329 102.834C13.3957 102.729 12.5428 102.729 11.7057 102.834C11.5727 102.834 11.4397 102.729 11.3066 102.623C11.3066 102.518 11.4397 102.413 11.5727 102.307C12.499 102.202 13.4396 102.202 14.3659 102.307C14.4989 102.307 14.6319 102.413 14.6319 102.623C14.4994 102.729 14.3663 102.834 14.2329 102.834Z" fill="#F6F6F6"/>
<path d="M14.2329 101.991C13.3957 101.885 12.5428 101.885 11.7057 101.991C11.5727 101.991 11.4397 101.885 11.3066 101.78C11.3066 101.674 11.4397 101.569 11.5727 101.463C12.499 101.358 13.4396 101.358 14.3659 101.463C14.4989 101.463 14.6319 101.569 14.6319 101.78C14.4994 101.885 14.3663 101.991 14.2329 101.991Z" fill="#F6F6F6"/>
<path d="M14.2329 101.147C13.3957 101.042 12.5428 101.042 11.7057 101.147C11.5727 101.147 11.4397 101.042 11.3066 100.936C11.3066 100.831 11.4397 100.726 11.5727 100.62C12.499 100.515 13.4396 100.515 14.3659 100.62C14.4989 100.62 14.6319 100.726 14.6319 100.936C14.4994 101.042 14.3663 101.147 14.2329 101.147Z" fill="#F6F6F6"/>
<path d="M17.8244 104.31C17.8244 104.521 17.6914 104.627 17.5584 104.838C16.3613 105.578 8.51272 105.681 7.18262 104.838C8.37971 103.889 10.3753 103.256 12.9025 103.256C14.6372 103.223 16.3468 103.589 17.8244 104.31Z" fill="#CC350E"/>
<path d="M70.1021 106.42C72.0973 107.053 77.6842 107.053 79.6798 106.42C80.0865 106.263 80.3446 105.935 80.3449 105.576V103.889H69.3041V105.576C69.2666 105.976 69.6075 106.337 70.1021 106.42Z" fill="#EDEDED"/>
<path d="M72.8957 103.467H75.8224L75.9554 99.6707C75.5564 98.6161 72.3618 98.7216 72.3618 99.987L72.8957 103.467Z" fill="#CC350E"/>
<path d="M69.4371 104.312C69.4371 104.523 69.5701 104.629 69.7031 104.839C70.9002 105.579 78.7487 105.683 80.0788 104.839C81.1429 103.679 79.0148 100.937 76.3541 99.3555L75.556 99.9882C75.1205 100.219 74.9089 100.638 75.024 101.043C75.157 102.308 75.29 103.258 74.4919 103.258C73.6939 103.258 73.8269 102.309 73.6939 101.043C73.6713 100.623 73.2829 100.272 72.7605 100.199C72.4226 100.099 72.1074 99.957 71.8271 99.7773C70.9002 100.619 69.038 103.045 69.4371 104.312Z" fill="#DE4922"/>
<path d="M73.0289 102.834C73.866 102.729 74.7189 102.729 75.5561 102.834C75.6891 102.834 75.8221 102.729 75.9551 102.623C75.9551 102.518 75.8221 102.413 75.6891 102.307C74.7626 102.202 73.8219 102.202 72.8954 102.307C72.7624 102.307 72.6294 102.413 72.6294 102.623C72.7629 102.729 72.8959 102.834 73.0289 102.834Z" fill="#F6F6F6"/>
<path d="M73.0289 101.991C73.866 101.885 74.7189 101.885 75.5561 101.991C75.6891 101.991 75.8221 101.885 75.9551 101.78C75.9551 101.674 75.8221 101.569 75.6891 101.463C74.7626 101.358 73.8219 101.358 72.8954 101.463C72.7624 101.463 72.6294 101.569 72.6294 101.78C72.7629 101.885 72.8959 101.991 73.0289 101.991Z" fill="#F6F6F6"/>
<path d="M73.0289 101.147C73.866 101.042 74.7189 101.042 75.5561 101.147C75.6891 101.147 75.8221 101.042 75.9551 100.936C75.9551 100.831 75.8221 100.726 75.6891 100.62C74.7626 100.515 73.8219 100.515 72.8954 100.62C72.7624 100.62 72.6294 100.726 72.6294 100.936C72.7629 101.042 72.8959 101.147 73.0289 101.147Z" fill="#F6F6F6"/>
<path d="M69.437 104.311C69.437 104.522 69.57 104.627 69.703 104.838C70.9001 105.578 78.7487 105.682 80.0788 104.838C78.8817 103.889 76.8865 103.256 74.3589 103.256C72.6242 103.223 70.9146 103.59 69.437 104.311H69.437Z" fill="#CC350E"/>
<path d="M32.8563 9.39676C32.8347 9.14542 32.8799 8.89328 32.9891 8.65674C33.0209 8.90831 32.9753 9.16224 32.8563 9.39676Z" fill="#A15E2E"/>
<path d="M59.0433 4.33318C59.8414 3.48955 60.1074 2.96228 60.7724 1.59102C60.7724 1.59102 59.5753 2.85646 56.1166 2.64555C55.9836 2.64555 56.7817 1.80193 56.5156 1.90553C55.0234 2.19301 53.4611 2.15658 51.9928 1.80008C50.974 1.49423 49.889 1.35088 48.8001 1.37826C49.3322 0.956449 48.8001 -0.0980855 48.6671 0.00736792C47.7337 1.0619 46.2729 0.956449 43.4792 1.48372C41.2181 1.69462 35.2321 2.74916 33.9016 8.33893C33.9016 8.54984 33.7686 8.65529 33.7686 8.8662C33.7686 9.0771 33.6355 9.28801 33.6355 9.60622V9.92258C32.4385 16.1447 35.7637 20.2578 40.6856 21.7345V19.3087C40.1535 18.8869 39.4885 18.2541 38.5574 17.516C37.8923 16.8832 37.2273 15.6178 36.6952 14.0356H36.1632C35.6312 13.8247 35.0991 13.192 34.8331 12.3484C34.5671 11.2938 35.0991 10.3448 35.7665 10.3448C36.059 10.3161 36.3523 10.3935 36.5646 10.5557C36.5429 10.2357 36.5878 9.91502 36.6976 9.60659C36.8306 8.86657 36.9636 8.2357 37.0966 7.60298C37.2333 7.17109 37.4112 6.74806 37.6287 6.33753C42.1515 5.59751 46.5427 9.71241 51.9952 9.2906C52.9573 9.17814 53.8965 8.96539 54.7884 8.65788C56.5175 8.02516 58.2471 6.86517 60.1088 4.86119C60.3734 4.43826 58.9126 4.33318 59.0433 4.33318Z" fill="#884F27"/>
<path d="M52.1445 10.1331C51.8519 10.1044 51.5587 10.1819 51.3464 10.344C51.3549 10.0244 51.3102 9.70529 51.2134 9.39494V8.97313C45.7595 9.39494 41.3697 5.28189 36.8469 6.02007C36.5705 6.41151 36.39 6.84087 36.3148 7.28551C36.1818 7.91823 36.0488 8.55095 35.9158 9.28912C35.9158 9.60548 35.7828 9.92184 35.7828 10.2382C35.5705 10.0761 35.2773 9.99858 34.9847 10.0273C34.3197 10.1327 33.7876 11.0818 34.0513 12.0309C34.1843 12.8745 34.7164 13.5073 35.3814 13.7182C35.5144 13.7182 35.6475 13.8236 35.7805 13.7182H35.9135C36.4455 15.3 37.1106 16.6712 37.7756 17.1985C38.709 17.9385 39.3717 18.5694 39.9038 18.9912C40.8372 19.7312 41.7659 20.0457 43.4974 20.1512C45.2265 20.0457 46.1576 19.7294 47.091 18.9912C47.7561 18.5694 48.2881 17.9367 49.2192 17.1985C49.8842 16.5658 50.5493 15.3003 51.0813 13.7182H51.6134C52.1454 13.5073 52.6774 12.8745 52.9435 12.0309C53.209 11.0822 52.81 10.2386 52.1445 10.1331Z" fill="#FDB171"/>
<path d="M54.4062 35.0224L53.7411 38.6082C46.9571 39.9791 40.1731 40.0845 33.3887 38.6082L32.7236 35.0224C33.9929 35.9528 35.651 36.4786 37.3795 36.4988C40.8382 36.4988 43.6333 34.4951 43.6333 32.0693C43.6333 34.4948 46.4265 36.4988 49.7522 36.4988C51.7455 36.3933 53.3421 35.866 54.4062 35.0224Z" fill="#CF4433"/>
<path d="M56.5341 22.2612L55.204 29.8546L54.2706 35.0222C53.0381 35.9191 51.4205 36.4094 49.7477 36.3931C46.289 36.3931 43.6288 34.3895 43.6288 31.9637C43.6288 34.3895 40.8351 36.3931 37.375 36.3931C35.6348 36.4217 33.9545 35.8889 32.7192 34.9168L31.9211 29.8546L30.5947 22.2612H37.5117C38.0438 25.4252 40.4384 27.8506 43.4977 27.8506C46.5569 27.8506 48.9515 25.4248 49.4836 22.2612H56.5341Z" fill="#EB4D3A"/>
<path d="M31.3932 28.1673L14.6325 26.48C12.879 26.2907 11.638 25.0249 11.8393 23.6309C12.0099 22.2428 13.543 21.2144 15.298 21.311L34.7189 22.3655C34.8514 22.2615 36.7141 27.64 31.3932 28.1673Z" fill="#FDB171"/>
<path d="M43.6309 58.8574L30.728 77.1023C28.3338 80.0554 21.5494 79.1059 22.6139 73.7274C23.279 63.0759 27.6688 53.6898 34.9848 47.4673C40.7047 49.26 46.559 49.4709 52.4105 47.4673C59.7266 53.6894 64.1164 63.0759 64.7814 73.7274C65.8455 79.1059 58.9285 80.0546 56.6673 77.1023L43.6309 58.8574Z" fill="#FDB171"/>
<path d="M43.7644 33.0183C43.7644 35.4437 41.1041 37.4477 37.7784 37.4477C36.1163 37.4754 34.5187 36.9381 33.3886 35.9714C32.4097 35.1798 31.8402 34.1262 31.7925 33.0183C31.7903 32.2683 32.068 31.5345 32.5906 30.9092C33.6846 29.4661 35.6547 28.5849 37.7784 28.5889C41.1041 28.6943 43.7644 30.5925 43.7644 33.0183Z" fill="#EB4D3A"/>
<path d="M55.47 33.0183C55.485 34.1675 54.9086 35.2719 53.8739 36.0768C52.7458 36.9697 51.211 37.464 49.6171 37.4477C46.4244 37.4477 43.7642 35.4441 43.7642 33.0183C43.7642 30.5925 46.4244 28.5889 49.6171 28.5889C51.6694 28.5919 53.5768 29.4277 54.6719 30.8038C55.1796 31.4732 55.4549 32.2372 55.47 33.0183Z" fill="#EB4D3A"/>
<path d="M55.8691 28.1673L72.6298 26.48C74.3833 26.2907 75.6244 25.0249 75.4234 23.6309C75.2526 22.2429 73.7196 21.2146 71.9647 21.3109L52.5438 22.3655C52.4094 22.2615 50.5482 27.64 55.8691 28.1673Z" fill="#FDB171"/>
<path d="M43.6309 58.8574L30.728 77.1023C28.3338 80.0554 21.5494 79.1059 22.6139 73.7274C23.279 63.0759 27.6688 53.6898 34.9848 47.4673C40.7047 49.26 46.559 49.4709 52.4105 47.4673C59.7266 53.6894 64.1164 63.0759 64.7814 73.7274C65.8455 79.1059 58.9285 80.0546 56.6673 77.1023L43.6309 58.8574Z" fill="#DE4922"/>
</svg>
